<?xml version="1.0" encoding="UTF-8" standalone="no"?>
<svg
   id="Livello_1"
   version="1.1"
   viewBox="0 0 337.09998 228.5"
   sodipodi:docname="crenos2.svg"
   width="337.09998"
   height="228.5"
   inkscape:version="1.4.3 (0d15f75, 2025-12-25)"
   xmlns:inkscape="http://www.inkscape.org/namespaces/inkscape"
   xmlns:sodipodi="http://sodipodi.sourceforge.net/DTD/sodipodi-0.dtd"
   xmlns="http://www.w3.org/2000/svg"
   xmlns:svg="http://www.w3.org/2000/svg">
  <sodipodi:namedview
     id="namedview90"
     pagecolor="#ffffff"
     bordercolor="#000000"
     borderopacity="0.25"
     inkscape:showpageshadow="2"
     inkscape:pageopacity="0.0"
     inkscape:pagecheckerboard="0"
     inkscape:deskcolor="#d1d1d1"
     inkscape:zoom="2.9656863"
     inkscape:cx="168.42645"
     inkscape:cy="114.13884"
     inkscape:window-width="3840"
     inkscape:window-height="2054"
     inkscape:window-x="3829"
     inkscape:window-y="-11"
     inkscape:window-maximized="1"
     inkscape:current-layer="Livello_1" />
  <!-- Generator: Adobe Illustrator 29.6.1, SVG Export Plug-In . SVG Version: 2.1.1 Build 9)  -->
  <defs
     id="defs1">
    <style
       id="style1">
      .st0 {
        fill: #172d49;
      }
    </style>
  </defs>
  <g
     id="g4"
     transform="translate(-227.5,-191.8)">
    <path
       class="st0"
       d="m 268.1,353 c 3.7,2 7.8,3 12.4,3 4.6,0 7.7,-0.8 10.9,-2.3 3.2,-1.5 5.8,-3.7 7.6,-6.5 1.8,-2.8 2.8,-5.9 2.8,-9.5 v -1.2 h -5.7 v 0.9 c 0,2.5 -0.7,4.8 -2,6.8 -1.4,2 -3.2,3.5 -5.6,4.6 -2.4,1.1 -5,1.6 -8,1.6 -3,0 -6.4,-0.8 -9.2,-2.4 -2.8,-1.6 -4.9,-3.8 -6.5,-6.7 -1.6,-2.9 -2.4,-6.2 -2.4,-10 0,-3.8 0.8,-7.2 2.3,-10.1 1.5,-2.9 3.7,-5.2 6.4,-6.8 2.7,-1.6 5.9,-2.4 9.3,-2.4 3.4,0 5.5,0.6 7.9,1.7 2.3,1.1 4.2,2.7 5.5,4.8 1.3,2.1 2,4.4 2,7 v 1.3 h 5.6 c 0,-0.6 0,-1.2 0,-1.8 0,-3.6 -0.9,-6.9 -2.7,-9.7 -1.8,-2.8 -4.3,-5 -7.5,-6.6 -3.2,-1.6 -6.8,-2.4 -10.8,-2.4 -4,0 -8.9,1 -12.6,3.1 -3.7,2 -6.5,4.9 -8.5,8.7 -2,3.7 -3.1,8.1 -3.1,13.1 0,5 1,9.2 3.1,13 2.1,3.7 4.9,6.6 8.6,8.6 z"
       id="path1" />
    <path
       class="st0"
       d="m 317.9,335.3 h 15 c 2.6,0 4.6,0.3 6.1,1 1.5,0.7 2.5,1.6 3.2,2.8 0.6,1.2 0.9,2.7 0.9,4.5 v 11.6 h 6.3 v -11.6 c 0,-2.1 -0.3,-3.9 -0.9,-5.5 -0.6,-1.6 -1.5,-2.8 -2.8,-3.8 -1.3,-1 -3.1,-1.6 -5.3,-1.8 v 0 c 3.2,-0.5 5.5,-1.7 7,-3.8 1.5,-2 2.3,-4.7 2.3,-7.9 0,-3.2 -0.7,-5.3 -2,-7.3 -1.3,-2 -3.4,-3.6 -6.1,-4.7 -2.7,-1.1 -6,-1.6 -10,-1.6 h -19.9 v 48 h 6.1 v -20 z m 0,-22.5 h 13.8 c 2.7,0 4.9,0.3 6.7,1 1.8,0.7 3.1,1.7 4,3 0.9,1.3 1.3,2.8 1.3,4.6 0,1.8 -0.4,3.6 -1.2,5 -0.8,1.4 -2.1,2.5 -3.9,3.2 -1.8,0.8 -4.1,1.1 -6.9,1.1 H 318 v -18 z"
       id="path2" />
    <polygon
       class="st0"
       points="365.9,333.4 386.7,333.4 386.7,328.9 365.9,328.9 365.9,312.8 391.6,312.8 391.6,307.3 359.8,307.3 359.8,355.3 392.2,355.3 392.2,349.8 365.9,349.8 "
       id="polygon2" />
    <polygon
       class="st0"
       points="436.7,347.1 436.5,347.1 410.5,307.3 400.6,307.3 400.6,355.3 406.5,355.3 406.5,311.7 406.6,311.7 435.3,355.3 442.5,355.3 442.5,307.3 436.7,307.3 "
       id="polygon3" />
    <path
       class="st0"
       d="m 479.9,353.6 c 2.7,-1.5 4.9,-3.7 6.4,-6.5 1.5,-2.8 2.2,-6 2.2,-9.7 0,-3.7 -0.7,-7.1 -2.2,-9.9 -1.5,-2.8 -3.6,-5 -6.4,-6.5 -2.7,-1.5 -6,-2.3 -9.7,-2.3 -3.7,0 -6.9,0.8 -9.7,2.3 -2.7,1.5 -4.9,3.7 -6.4,6.5 -1.5,2.8 -2.2,6.1 -2.2,9.9 0,3.8 0.7,6.9 2.2,9.7 1.5,2.8 3.6,5 6.4,6.5 2.7,1.5 6,2.3 9.7,2.3 3.7,0 6.9,-0.8 9.7,-2.3 z m -20.5,-9.2 c -1,-2 -1.5,-4.3 -1.5,-7 0,-2.7 0.5,-5.1 1.5,-7.1 1,-2 2.5,-3.6 4.3,-4.7 1.8,-1.1 4,-1.6 6.6,-1.6 2.6,0 4.7,0.5 6.6,1.6 1.8,1.1 3.3,2.7 4.3,4.7 1,2 1.5,4.4 1.5,7.1 0,2.7 -0.5,5 -1.5,7 -1,2 -2.5,3.5 -4.3,4.6 -1.9,1.1 -4,1.6 -6.6,1.6 -2.6,0 -4.7,-0.5 -6.6,-1.6 -1.9,-1.1 -3.3,-2.6 -4.3,-4.6 z"
       id="path3" />
    <path
       class="st0"
       d="m 503.5,331.8 c 2.6,0.9 6.1,1.6 10.6,2.2 4.4,0.6 7.6,1.2 9.7,1.7 2.1,0.6 3.6,1.3 4.4,2.2 0.8,0.9 1.2,2.3 1.2,4 0,1.7 -0.4,3.2 -1.3,4.5 -0.9,1.3 -2.3,2.4 -4.4,3.2 -2.1,0.8 -4.9,1.2 -8.4,1.2 -3.5,0 -6,-0.5 -8,-1.5 -2,-1 -3.5,-2.3 -4.4,-4.1 -0.9,-1.8 -1.3,-3.8 -1.3,-6.3 h -5.7 c 0,3.3 0.7,6.1 1.8,8.7 1.2,2.5 3.2,4.5 6.1,6.1 2.9,1.6 6.7,2.3 11.5,2.3 4.8,0 8.9,-0.7 11.9,-2 3,-1.3 5.1,-3.1 6.4,-5.3 1.3,-2.2 1.9,-4.6 1.9,-7.3 0,-2.7 -0.7,-5.1 -2,-6.8 -1.3,-1.6 -3.3,-2.9 -5.9,-3.7 -2.6,-0.8 -6.2,-1.5 -10.8,-2.1 -4.3,-0.5 -7.5,-1.1 -9.6,-1.7 -2.1,-0.6 -3.5,-1.4 -4.2,-2.4 -0.8,-1 -1.1,-2.4 -1.1,-4.3 0,-1.9 0.6,-3.2 1.7,-4.6 1.1,-1.3 2.7,-2.4 4.7,-3.1 2,-0.7 4.3,-1.1 6.9,-1.1 2.6,0 5.1,0.4 7,1.3 1.9,0.9 3.4,2.2 4.4,3.9 1,1.8 1.5,4.1 1.5,6.8 h 5.7 c 0,-3.8 -0.6,-7 -1.9,-9.5 -1.3,-2.6 -3.3,-4.5 -6.1,-5.8 -2.8,-1.3 -6.3,-2 -10.8,-2 -4.5,0 -7.2,0.6 -10.1,1.9 -2.9,1.2 -5.2,3 -6.8,5.1 -1.6,2.2 -2.4,4.7 -2.4,7.5 0,2.8 0.6,5.2 1.9,6.9 1.3,1.7 3.2,2.9 5.8,3.8 z"
       id="path4" />
  </g>
  <path
     class="st0"
     d="m 146.1,96.2 c 4,0 7.9,-0.8 11.2,-2.1 3.4,1.4 7.3,2.1 11.2,2.1 3.9,0 7.8,-0.7 11.2,-2.1 3.4,1.4 7.3,2.1 11.2,2.1 13,0 23.8,-8.6 24.1,-18.6 L 190.9,60.1 170.1,75.2 V 21 L 190.9,36.1 215,18.6 C 214.9,13.8 212.4,8.8 208,5.4 203.5,1.9 197.4,0 191,0 c -6.4,0 -7.8,0.7 -11.2,2.1 -6.9,-2.8 -15.5,-2.8 -22.4,0 C 154,0.7 150.2,0 146.2,0 132.9,0 122.1,8.3 122.1,18.5 v 59.2 c 0,10.2 10.8,18.5 24.1,18.5 z m 46.5,-18.4 v -13 l 19.1,13.9 c -0.6,8.3 -9.8,15 -20.7,15 -10.9,0 -5.4,-0.4 -7.9,-1.2 6,-3.5 9.6,-8.9 9.6,-14.7 z m -3.3,-13 v 13 c 0,5.4 -3.6,10.5 -9.6,13.4 -5.6,-2.8 -9.1,-7.3 -9.5,-12.5 z m -12.9,27.7 c -5,1.6 -10.8,1.6 -15.8,0 3.5,-2 6.3,-4.8 7.9,-8 1.6,3.2 4.3,5.9 7.9,8 z M 190.9,2.6 c 5.6,0 10.8,1.7 14.7,4.7 3.6,2.8 5.7,6.4 6,10.3 l -19.1,13.9 v -13 c 0,-4.9 -2.5,-9.6 -7.1,-13.1 -0.8,-0.6 -1.6,-1.2 -2.5,-1.7 2.5,-0.8 5.2,-1.2 7.9,-1.2 z m -11.2,2.6 c 1.2,0.6 2.4,1.3 3.5,2.1 3.9,3 6.1,7 6.1,11.3 v 13 L 170.2,17.7 c 0.4,-5.1 3.9,-9.7 9.5,-12.5 z m -3.3,-1.4 c -3.6,2.1 -6.3,4.9 -7.9,8 -1.6,-3.2 -4.4,-6 -7.9,-8 5,-1.6 10.8,-1.6 15.8,0 z m -9.5,14.8 v 0 59.2 c 0,5.6 -3.8,10.6 -9.6,13.4 -5.9,-2.9 -9.6,-8 -9.6,-13.4 V 18.6 c 0,-5.4 3.6,-10.5 9.6,-13.4 5.7,2.8 9.6,7.8 9.6,13.4 z m -41.6,0 c 0,-8.8 9.3,-15.9 20.8,-15.9 11.5,0 5.5,0.4 7.9,1.2 -6,3.5 -9.6,8.9 -9.6,14.7 v 59.2 c 0,5.8 3.6,11.3 9.6,14.7 -2.4,0.8 -5.1,1.2 -7.9,1.2 -11.5,0 -20.8,-7.1 -20.8,-15.9 z"
     id="path5" />
  <g
     id="g67"
     transform="translate(-227.5,-191.8)">
    <path
       class="st0"
       d="m 259.3,396.8 c 0.5,-0.3 1.1,-0.5 1.7,-0.5 0.6,0 1.2,0.2 1.7,0.5 0.5,0.3 0.8,0.7 1.1,1.3 h 1.4 c -0.3,-0.9 -0.9,-1.6 -1.6,-2.1 -0.7,-0.5 -1.6,-0.7 -2.6,-0.7 -1,0 -1.6,0.2 -2.3,0.6 -0.7,0.4 -1.3,1 -1.7,1.7 -0.4,0.7 -0.6,1.5 -0.6,2.4 0,0.9 0.2,1.7 0.6,2.4 0.4,0.7 1,1.3 1.7,1.7 0.7,0.4 1.5,0.6 2.3,0.6 0.8,0 1.9,-0.2 2.6,-0.7 0.7,-0.5 1.3,-1.2 1.6,-2 h -1.4 c -0.3,0.6 -0.6,1 -1.1,1.3 -0.5,0.3 -1.1,0.4 -1.7,0.4 -0.6,0 -1.2,-0.1 -1.7,-0.4 -0.5,-0.3 -0.9,-0.7 -1.2,-1.3 -0.3,-0.6 -0.4,-1.2 -0.4,-1.9 0,-0.7 0.1,-1.4 0.4,-1.9 0.3,-0.6 0.7,-1 1.2,-1.3 z"
       id="path6" />
    <path
       class="st0"
       d="m 272.3,404 c 0.6,-0.4 1,-1 1.2,-1.7 h -1.3 c -0.1,0.4 -0.4,0.7 -0.7,1 -0.3,0.2 -0.8,0.4 -1.3,0.4 -0.5,0 -1.2,-0.2 -1.6,-0.6 -0.4,-0.4 -0.7,-1 -0.7,-1.7 h 5.8 c 0,-0.3 0,-0.5 0,-0.7 0,-0.7 -0.1,-1.3 -0.4,-1.8 -0.3,-0.5 -0.7,-0.9 -1.2,-1.2 -0.5,-0.3 -1.1,-0.5 -1.8,-0.5 -0.7,0 -1.3,0.2 -1.9,0.5 -0.5,0.3 -1,0.7 -1.3,1.3 -0.3,0.6 -0.5,1.2 -0.5,2 0,0.8 0.2,1.4 0.5,2 0.3,0.6 0.7,1 1.3,1.3 0.5,0.3 1.2,0.5 1.8,0.5 0.6,0 1.6,-0.2 2.2,-0.7 z m -3.7,-5.2 c 0.4,-0.4 0.9,-0.6 1.6,-0.6 0.7,0 0.8,0 1.2,0.3 0.3,0.2 0.6,0.4 0.8,0.8 0.2,0.3 0.3,0.7 0.3,1.2 h -4.6 c 0,-0.7 0.3,-1.2 0.7,-1.6 z"
       id="path7" />
    <path
       class="st0"
       d="m 280.5,400.5 v 4.1 h 1.2 v -4.3 c 0,-1 -0.3,-1.8 -0.8,-2.3 -0.5,-0.5 -1.3,-0.8 -2.1,-0.8 -0.8,0 -0.9,0.1 -1.4,0.3 -0.4,0.2 -0.7,0.5 -1,0.9 v -1 h -1.2 v 7.2 h 1.2 v -4 c 0,-0.8 0.2,-1.3 0.6,-1.7 0.4,-0.4 0.9,-0.6 1.5,-0.6 0.6,0 1.1,0.2 1.5,0.6 0.4,0.4 0.5,0.9 0.5,1.7 z"
       id="path8" />
    <path
       class="st0"
       d="M 285.2,395.5 H 284 v 1.8 h -0.9 v 1 h 0.9 v 4.3 c 0,0.7 0.2,1.2 0.5,1.5 0.3,0.3 0.8,0.5 1.5,0.5 h 1.1 v -1 h -0.9 c -0.4,0 -0.6,0 -0.8,-0.2 -0.1,-0.1 -0.2,-0.4 -0.2,-0.7 v -4.3 h 1.9 v -1 h -1.9 v -1.8 z"
       id="path9" />
    <path
       class="st0"
       d="m 289.7,400.6 c 0,-1.5 0.7,-2.2 2,-2.2 h 0.3 v -1.2 c -0.6,0 -1,0.1 -1.4,0.3 -0.4,0.2 -0.7,0.6 -0.9,1 v -1.2 h -1.2 v 7.2 h 1.2 z"
       id="path10" />
    <path
       class="st0"
       d="m 300,400.7 c 0,-0.7 -0.1,-1.3 -0.4,-1.8 -0.3,-0.5 -0.7,-0.9 -1.2,-1.2 -0.5,-0.3 -1.1,-0.5 -1.8,-0.5 -0.7,0 -1.3,0.2 -1.9,0.5 -0.5,0.3 -1,0.7 -1.3,1.3 -0.3,0.6 -0.5,1.2 -0.5,2 0,0.8 0.2,1.4 0.5,2 0.3,0.6 0.7,1 1.3,1.3 0.5,0.3 1.2,0.5 1.8,0.5 0.6,0 1.6,-0.2 2.2,-0.7 0.6,-0.4 1,-1 1.2,-1.7 h -1.3 c -0.1,0.4 -0.4,0.7 -0.7,1 -0.3,0.2 -0.8,0.4 -1.3,0.4 -0.5,0 -1.2,-0.2 -1.6,-0.6 -0.4,-0.4 -0.7,-1 -0.7,-1.7 h 5.8 c 0,-0.3 0,-0.5 0,-0.7 z m -5.8,-0.3 c 0,-0.7 0.3,-1.2 0.7,-1.6 0.4,-0.4 0.9,-0.6 1.6,-0.6 0.7,0 0.8,0 1.2,0.3 0.3,0.2 0.6,0.4 0.8,0.8 0.2,0.3 0.3,0.7 0.3,1.2 h -4.6 z"
       id="path11" />
    <path
       class="st0"
       d="m 306.6,404.6 v -6.2 h 1.5 v -1 h -1.5 v -0.5 c 0,-0.5 0.1,-0.8 0.3,-1 0.2,-0.2 0.6,-0.3 1.1,-0.3 v -1 c -0.9,0 -1.6,0.2 -2,0.6 -0.4,0.4 -0.6,1 -0.6,1.8 v 0.5 h -0.9 v 1 h 0.9 v 6.2 h 1.2 z"
       id="path12" />
    <path
       class="st0"
       d="m 314.6,397.7 c -0.6,-0.3 -1.2,-0.5 -1.9,-0.5 -0.7,0 -1.3,0.2 -1.9,0.5 -0.6,0.3 -1,0.7 -1.3,1.3 -0.3,0.6 -0.5,1.2 -0.5,2 0,0.8 0.2,1.4 0.5,2 0.3,0.6 0.7,1 1.3,1.3 0.6,0.3 1.2,0.5 1.8,0.5 0.6,0 1.3,-0.2 1.9,-0.5 0.6,-0.3 1,-0.7 1.3,-1.3 0.3,-0.6 0.5,-1.2 0.5,-2 0,-0.8 -0.2,-1.4 -0.5,-2 -0.3,-0.6 -0.8,-1 -1.3,-1.3 z m 0.2,4.7 c -0.2,0.4 -0.5,0.7 -0.9,0.9 -0.4,0.2 -0.8,0.3 -1.2,0.3 -0.4,0 -0.8,0 -1.2,-0.3 -0.4,-0.2 -0.7,-0.5 -0.9,-0.9 -0.2,-0.4 -0.3,-0.9 -0.3,-1.5 0,-0.6 0.1,-1.1 0.3,-1.5 0.2,-0.4 0.5,-0.7 0.9,-0.9 0.4,-0.2 0.8,-0.3 1.2,-0.3 0.4,0 0.8,0 1.2,0.3 0.4,0.2 0.7,0.5 0.9,0.9 0.2,0.4 0.3,0.9 0.3,1.5 0,0.6 -0.1,1.1 -0.3,1.5 z"
       id="path13" />
    <path
       class="st0"
       d="m 319.2,400.6 c 0,-1.5 0.7,-2.2 2,-2.2 h 0.3 v -1.2 c -0.6,0 -1,0.1 -1.4,0.3 -0.4,0.2 -0.7,0.6 -0.9,1 v -1.2 H 318 v 7.2 h 1.2 z"
       id="path14" />
    <polygon
       class="st0"
       points="326.4,395.4 326.4,404.6 327.6,404.6 327.6,397.2 332.5,404.6 333.7,404.6 333.7,395.4 332.5,395.4 332.5,402.7 327.6,395.4 "
       id="polygon14" />
    <path
       class="st0"
       d="m 340.7,404.2 c 0.6,-0.3 1,-0.7 1.3,-1.3 0.3,-0.6 0.5,-1.2 0.5,-2 0,-0.8 -0.2,-1.4 -0.5,-2 -0.3,-0.6 -0.8,-1 -1.3,-1.3 -0.6,-0.3 -1.2,-0.5 -1.9,-0.5 -0.7,0 -1.3,0.2 -1.9,0.5 -0.6,0.3 -1,0.7 -1.3,1.3 -0.3,0.6 -0.5,1.2 -0.5,2 0,0.8 0.2,1.4 0.5,2 0.3,0.6 0.7,1 1.3,1.3 0.6,0.3 1.2,0.5 1.8,0.5 0.6,0 1.3,-0.2 1.9,-0.5 z m -3.9,-1.8 c -0.2,-0.4 -0.3,-0.9 -0.3,-1.5 0,-0.6 0.1,-1.1 0.3,-1.5 0.2,-0.4 0.5,-0.7 0.9,-0.9 0.4,-0.2 0.8,-0.3 1.2,-0.3 0.4,0 0.8,0 1.2,0.3 0.4,0.2 0.7,0.5 0.9,0.9 0.2,0.4 0.3,0.9 0.3,1.5 0,0.6 -0.1,1.1 -0.3,1.5 -0.2,0.4 -0.5,0.7 -0.9,0.9 -0.4,0.2 -0.8,0.3 -1.2,0.3 -0.4,0 -0.8,0 -1.2,-0.3 -0.4,-0.2 -0.6,-0.5 -0.9,-0.9 z"
       id="path15" />
    <path
       class="st0"
       d="m 347.7,398.4 v -1.2 c -0.6,0 -1,0.1 -1.4,0.3 -0.4,0.2 -0.7,0.6 -0.9,1 v -1.2 h -1.2 v 7.2 h 1.2 v -3.9 c 0,-1.5 0.7,-2.2 2,-2.2 z"
       id="path16" />
    <path
       class="st0"
       d="m 352.4,404.6 v -1 h -0.9 c -0.4,0 -0.6,0 -0.8,-0.2 -0.1,-0.1 -0.2,-0.4 -0.2,-0.7 v -4.3 h 1.9 v -1 h -1.9 v -1.8 h -1.2 v 1.8 h -0.9 v 1 h 0.9 v 4.3 c 0,0.7 0.2,1.2 0.5,1.5 0.3,0.3 0.8,0.5 1.5,0.5 h 1.1 z"
       id="path17" />
    <path
       class="st0"
       d="m 359.2,404.6 h 1.2 v -4.3 c 0,-0.7 -0.1,-1.2 -0.4,-1.7 -0.3,-0.5 -0.6,-0.8 -1,-1.1 -0.4,-0.2 -0.9,-0.3 -1.5,-0.3 -0.6,0 -1,0.1 -1.4,0.3 -0.4,0.2 -0.7,0.5 -1,0.9 v -3.6 h -1.2 v 9.8 h 1.2 v -4 c 0,-0.8 0.2,-1.3 0.6,-1.7 0.4,-0.4 0.9,-0.6 1.5,-0.6 0.6,0 1.1,0.2 1.5,0.6 0.4,0.4 0.5,0.9 0.5,1.7 v 4.1 z"
       id="path18" />
    <path
       class="st0"
       d="m 368.8,404.7 c 0.6,0 1.2,-0.1 1.7,-0.4 0.5,-0.2 0.8,-0.6 1.1,-1 0.3,-0.4 0.4,-0.8 0.4,-1.3 0,-0.5 -0.1,-1 -0.4,-1.4 -0.3,-0.3 -0.6,-0.6 -1,-0.8 -0.4,-0.2 -0.9,-0.3 -1.5,-0.5 -0.5,-0.1 -0.9,-0.3 -1.2,-0.4 -0.3,-0.1 -0.5,-0.3 -0.7,-0.5 -0.2,-0.2 -0.3,-0.5 -0.3,-0.8 0,-0.3 0.2,-0.8 0.5,-1.1 0.3,-0.3 0.7,-0.4 1.2,-0.4 0.5,0 1,0.1 1.3,0.4 0.3,0.3 0.5,0.6 0.6,0.9 h 1.3 c 0,-0.7 -0.4,-1.3 -0.9,-1.7 -0.6,-0.4 -1.3,-0.6 -2.1,-0.6 -0.8,0 -1.1,0.1 -1.6,0.3 -0.5,0.2 -0.8,0.5 -1.1,0.9 -0.3,0.4 -0.4,0.8 -0.4,1.3 0,0.5 0.1,1 0.4,1.4 0.3,0.3 0.6,0.6 0.9,0.7 0.4,0.2 0.9,0.3 1.5,0.5 0.5,0.1 0.9,0.3 1.2,0.4 0.3,0.1 0.5,0.3 0.7,0.5 0.2,0.2 0.3,0.5 0.3,0.9 0,0.4 -0.2,0.8 -0.5,1.1 -0.3,0.3 -0.8,0.4 -1.4,0.4 -0.6,0 -1.1,-0.1 -1.4,-0.4 -0.3,-0.3 -0.5,-0.7 -0.5,-1.1 h -1.3 c 0,0.5 0.1,0.9 0.4,1.3 0.3,0.4 0.6,0.7 1.1,0.9 0.5,0.2 1,0.3 1.6,0.3 z"
       id="path19" />
    <path
       class="st0"
       d="m 380,402.9 c 0.3,-0.6 0.5,-1.2 0.5,-2 0,-0.8 -0.2,-1.4 -0.5,-2 -0.3,-0.6 -0.8,-1 -1.3,-1.3 -0.6,-0.3 -1.2,-0.5 -1.9,-0.5 -0.7,0 -1.3,0.2 -1.9,0.5 -0.6,0.3 -1,0.7 -1.3,1.3 -0.3,0.6 -0.5,1.2 -0.5,2 0,0.8 0.2,1.4 0.5,2 0.3,0.6 0.7,1 1.3,1.3 0.6,0.3 1.2,0.5 1.8,0.5 0.6,0 1.3,-0.2 1.9,-0.5 0.6,-0.3 1,-0.7 1.3,-1.3 z m -1.1,-0.5 c -0.2,0.4 -0.5,0.7 -0.9,0.9 -0.4,0.2 -0.8,0.3 -1.2,0.3 -0.4,0 -0.8,0 -1.2,-0.3 -0.4,-0.2 -0.7,-0.5 -0.9,-0.9 -0.2,-0.4 -0.3,-0.9 -0.3,-1.5 0,-0.6 0.1,-1.1 0.3,-1.5 0.2,-0.4 0.5,-0.7 0.9,-0.9 0.4,-0.2 0.8,-0.3 1.2,-0.3 0.4,0 0.8,0 1.2,0.3 0.4,0.2 0.7,0.5 0.9,0.9 0.2,0.4 0.3,0.9 0.3,1.5 0,0.6 -0.1,1.1 -0.3,1.5 z"
       id="path20" />
    <path
       class="st0"
       d="m 387.3,403.5 v 1.1 h 1.2 v -7.2 h -1.2 v 4 c 0,0.8 -0.2,1.3 -0.6,1.7 -0.4,0.4 -0.9,0.6 -1.5,0.6 -0.6,0 -1.1,-0.2 -1.5,-0.6 -0.4,-0.4 -0.5,-0.9 -0.5,-1.6 v -4.1 H 382 v 4.2 c 0,0.7 0.1,1.2 0.4,1.7 0.3,0.5 0.6,0.8 1.1,1.1 0.5,0.2 1,0.3 1.5,0.3 0.5,0 0.9,-0.1 1.4,-0.3 0.5,-0.2 0.7,-0.5 1,-0.9 z"
       id="path21" />
    <path
       class="st0"
       d="M 393.9,403.6 H 393 c -0.4,0 -0.6,0 -0.8,-0.2 -0.1,-0.1 -0.2,-0.4 -0.2,-0.7 v -4.3 h 1.9 v -1 H 392 v -1.8 h -1.2 v 1.8 h -0.9 v 1 h 0.9 v 4.3 c 0,0.7 0.2,1.2 0.5,1.5 0.3,0.3 0.8,0.5 1.5,0.5 h 1.1 v -1 z"
       id="path22" />
    <path
       class="st0"
       d="m 400.4,397.6 c -0.4,-0.2 -0.9,-0.3 -1.5,-0.3 -0.6,0 -1,0.1 -1.4,0.3 -0.4,0.2 -0.7,0.5 -1,0.9 v -3.6 h -1.2 v 9.8 h 1.2 v -4 c 0,-0.8 0.2,-1.3 0.6,-1.7 0.4,-0.4 0.9,-0.6 1.5,-0.6 0.6,0 1.1,0.2 1.5,0.6 0.4,0.4 0.5,0.9 0.5,1.7 v 4.1 h 1.2 v -4.3 c 0,-0.7 -0.1,-1.2 -0.4,-1.7 -0.3,-0.5 -0.6,-0.8 -1,-1.1 z"
       id="path23" />
    <polygon
       class="st0"
       points="407.3,395.4 407.3,404.6 412.3,404.6 412.3,403.6 408.5,403.6 408.5,400.4 411.9,400.4 411.9,399.4 408.5,399.4 408.5,396.3 412.3,396.3 412.3,395.4 "
       id="polygon23" />
    <path
       class="st0"
       d="m 417.2,398.2 c 0.5,0 1,0.1 1.3,0.4 0.4,0.3 0.6,0.6 0.7,1 h 1.3 c -0.2,-0.8 -0.6,-1.4 -1.1,-1.8 -0.6,-0.4 -1.3,-0.6 -2.2,-0.6 -0.9,0 -1.3,0.2 -1.8,0.5 -0.5,0.3 -0.9,0.7 -1.2,1.3 -0.3,0.6 -0.4,1.2 -0.4,2 0,0.8 0.1,1.4 0.4,2 0.3,0.6 0.7,1 1.2,1.3 0.5,0.3 1.1,0.5 1.8,0.5 0.7,0 1.6,-0.2 2.2,-0.7 0.6,-0.4 1,-1 1.2,-1.8 h -1.3 c -0.1,0.5 -0.4,0.8 -0.7,1.1 -0.4,0.2 -0.8,0.4 -1.3,0.4 -0.5,0 -1.2,-0.2 -1.7,-0.7 -0.4,-0.5 -0.6,-1.1 -0.6,-2 0,-0.9 0.2,-1.5 0.6,-2 0.4,-0.5 1,-0.7 1.7,-0.7 z"
       id="path24" />
    <path
       class="st0"
       d="m 422.2,402.9 c 0.3,0.6 0.7,1 1.3,1.3 0.6,0.3 1.2,0.5 1.8,0.5 0.6,0 1.3,-0.2 1.9,-0.5 0.6,-0.3 1,-0.7 1.3,-1.3 0.3,-0.6 0.5,-1.2 0.5,-2 0,-0.8 -0.2,-1.4 -0.5,-2 -0.3,-0.6 -0.8,-1 -1.3,-1.3 -0.6,-0.3 -1.2,-0.5 -1.9,-0.5 -0.7,0 -1.3,0.2 -1.9,0.5 -0.6,0.3 -1,0.7 -1.3,1.3 -0.3,0.6 -0.5,1.2 -0.5,2 0,0.8 0.2,1.4 0.5,2 z m 1.1,-3.4 c 0.2,-0.4 0.5,-0.7 0.9,-0.9 0.4,-0.2 0.8,-0.3 1.2,-0.3 0.4,0 0.8,0 1.2,0.3 0.4,0.2 0.7,0.5 0.9,0.9 0.2,0.4 0.3,0.9 0.3,1.5 0,0.6 -0.1,1.1 -0.3,1.5 -0.2,0.4 -0.5,0.7 -0.9,0.9 -0.4,0.2 -0.8,0.3 -1.2,0.3 -0.4,0 -0.8,0 -1.2,-0.3 -0.4,-0.2 -0.6,-0.5 -0.9,-0.9 -0.2,-0.4 -0.3,-0.9 -0.3,-1.5 0,-0.6 0.1,-1.1 0.3,-1.5 z"
       id="path25" />
    <path
       class="st0"
       d="m 435.9,404.6 h 1.2 v -4.3 c 0,-1 -0.3,-1.8 -0.8,-2.3 -0.5,-0.5 -1.3,-0.8 -2.1,-0.8 -0.8,0 -0.9,0.1 -1.4,0.3 -0.4,0.2 -0.7,0.5 -1,0.9 v -1 h -1.2 v 7.2 h 1.2 v -4 c 0,-0.8 0.2,-1.3 0.6,-1.7 0.4,-0.4 0.9,-0.6 1.5,-0.6 0.6,0 1.1,0.2 1.5,0.6 0.4,0.4 0.5,0.9 0.5,1.7 v 4.1 z"
       id="path26" />
    <path
       class="st0"
       d="m 445.4,402.9 c 0.3,-0.6 0.5,-1.2 0.5,-2 0,-0.8 -0.2,-1.4 -0.5,-2 -0.3,-0.6 -0.8,-1 -1.3,-1.3 -0.6,-0.3 -1.2,-0.5 -1.9,-0.5 -0.7,0 -1.3,0.2 -1.9,0.5 -0.6,0.3 -1,0.7 -1.3,1.3 -0.3,0.6 -0.5,1.2 -0.5,2 0,0.8 0.2,1.4 0.5,2 0.3,0.6 0.7,1 1.3,1.3 0.6,0.3 1.2,0.5 1.8,0.5 0.6,0 1.3,-0.2 1.9,-0.5 0.6,-0.3 1,-0.7 1.3,-1.3 z m -1.1,-0.5 c -0.2,0.4 -0.5,0.7 -0.9,0.9 -0.4,0.2 -0.8,0.3 -1.2,0.3 -0.4,0 -0.8,0 -1.2,-0.3 -0.4,-0.2 -0.6,-0.5 -0.9,-0.9 -0.2,-0.4 -0.3,-0.9 -0.3,-1.5 0,-0.6 0.1,-1.1 0.3,-1.5 0.2,-0.4 0.5,-0.7 0.9,-0.9 0.4,-0.2 0.8,-0.3 1.2,-0.3 0.4,0 0.8,0 1.2,0.3 0.4,0.2 0.7,0.5 0.9,0.9 0.2,0.4 0.3,0.9 0.3,1.5 0,0.6 -0.1,1.1 -0.3,1.5 z"
       id="path27" />
    <path
       class="st0"
       d="m 452.7,400.5 v 4.1 h 1.2 v -4 c 0,-0.8 0.2,-1.3 0.6,-1.7 0.4,-0.4 0.9,-0.6 1.5,-0.6 0.6,0 1.1,0.2 1.4,0.6 0.4,0.4 0.5,0.9 0.5,1.7 v 4.1 h 1.2 v -4.3 c 0,-0.7 -0.1,-1.2 -0.4,-1.7 -0.3,-0.5 -0.6,-0.8 -1,-1.1 -0.4,-0.2 -0.9,-0.3 -1.5,-0.3 -0.6,0 -1.1,0.1 -1.6,0.4 -0.5,0.3 -0.8,0.7 -1,1.2 -0.2,-0.5 -0.6,-0.9 -1,-1.2 -0.5,-0.3 -1,-0.4 -1.6,-0.4 -0.6,0 -0.9,0.1 -1.3,0.3 -0.4,0.2 -0.7,0.5 -1,0.9 v -1 h -1.2 v 7.2 h 1.2 v -4 c 0,-0.8 0.2,-1.3 0.6,-1.7 0.4,-0.4 0.9,-0.6 1.5,-0.6 0.6,0 1.1,0.2 1.4,0.6 0.4,0.4 0.5,0.9 0.5,1.7 z"
       id="path28" />
    <rect
       class="st0"
       x="461.10001"
       y="397.29999"
       width="1.2"
       height="7.1999998"
       id="rect28" />
    <path
       class="st0"
       d="m 461.7,394.5 c -0.2,0 -0.4,0 -0.6,0.2 -0.2,0.2 -0.2,0.4 -0.2,0.6 0,0.2 0,0.4 0.2,0.6 0.2,0.2 0.4,0.2 0.6,0.2 0.2,0 0.4,0 0.6,-0.2 0.2,-0.2 0.2,-0.4 0.2,-0.6 0,-0.2 0,-0.4 -0.2,-0.6 -0.2,-0.2 -0.3,-0.2 -0.6,-0.2 z"
       id="path29" />
    <path
       class="st0"
       d="m 465.6,404.2 c 0.5,0.3 1.1,0.5 1.8,0.5 0.7,0 1.6,-0.2 2.2,-0.7 0.6,-0.4 1,-1 1.2,-1.8 h -1.3 c -0.1,0.5 -0.4,0.8 -0.7,1.1 -0.4,0.2 -0.8,0.4 -1.3,0.4 -0.5,0 -1.2,-0.2 -1.7,-0.7 -0.4,-0.5 -0.6,-1.1 -0.6,-2 0,-0.9 0.2,-1.5 0.6,-2 0.4,-0.5 1,-0.7 1.7,-0.7 0.7,0 1,0.1 1.3,0.4 0.4,0.3 0.6,0.6 0.7,1 h 1.3 c -0.2,-0.8 -0.6,-1.4 -1.1,-1.8 -0.6,-0.4 -1.3,-0.6 -2.2,-0.6 -0.9,0 -1.3,0.2 -1.8,0.5 -0.5,0.3 -0.9,0.7 -1.2,1.3 -0.3,0.6 -0.4,1.2 -0.4,2 0,0.8 0.1,1.4 0.4,2 0.3,0.6 0.7,1 1.2,1.3 z"
       id="path30" />
    <path
       class="st0"
       d="m 479.9,400.7 c 0.7,-0.2 1.3,-0.5 1.6,-1 0.4,-0.5 0.5,-1 0.5,-1.7 0,-0.7 -0.1,-1 -0.4,-1.4 -0.2,-0.4 -0.6,-0.7 -1.1,-1 -0.5,-0.2 -1.1,-0.4 -1.8,-0.4 h -3 v 9.2 h 1.2 v -3.8 h 1.5 l 2.2,3.8 h 1.4 l -2.3,-3.9 z m -2.8,-0.8 v -3.5 h 1.8 c 0.7,0 1.2,0.2 1.5,0.5 0.3,0.3 0.5,0.7 0.5,1.3 0,0.6 -0.2,1 -0.5,1.3 -0.3,0.3 -0.8,0.5 -1.5,0.5 h -1.8 z"
       id="path31" />
    <path
       class="st0"
       d="m 490.6,400.7 c 0,-0.7 -0.1,-1.3 -0.4,-1.8 -0.3,-0.5 -0.7,-0.9 -1.2,-1.2 -0.5,-0.3 -1.1,-0.5 -1.8,-0.5 -0.7,0 -1.3,0.2 -1.9,0.5 -0.5,0.3 -1,0.7 -1.3,1.3 -0.3,0.6 -0.4,1.2 -0.4,2 0,0.8 0.2,1.4 0.5,2 0.3,0.6 0.7,1 1.3,1.3 0.5,0.3 1.2,0.5 1.8,0.5 0.6,0 1.6,-0.2 2.2,-0.7 0.6,-0.5 1,-1 1.2,-1.7 h -1.3 c -0.1,0.4 -0.4,0.7 -0.7,1 -0.3,0.2 -0.8,0.4 -1.3,0.4 -0.5,0 -1.2,-0.2 -1.6,-0.6 -0.4,-0.4 -0.7,-1 -0.7,-1.7 h 5.8 c 0,-0.3 0,-0.5 0,-0.7 z m -5.9,-0.3 c 0,-0.7 0.3,-1.2 0.7,-1.6 0.4,-0.4 0.9,-0.6 1.6,-0.6 0.7,0 0.8,0 1.2,0.3 0.3,0.2 0.6,0.4 0.8,0.8 0.2,0.3 0.3,0.7 0.3,1.2 h -4.6 z"
       id="path32" />
    <path
       class="st0"
       d="m 496.1,400.9 c -0.3,-0.1 -0.7,-0.3 -1.3,-0.4 -0.4,-0.1 -0.7,-0.2 -1,-0.3 -0.3,-0.1 -0.4,-0.2 -0.6,-0.4 -0.2,-0.2 -0.2,-0.3 -0.2,-0.6 0,-0.3 0.1,-0.5 0.4,-0.7 0.3,-0.2 0.6,-0.3 1,-0.3 0.4,0 0.8,0.1 1.1,0.3 0.3,0.2 0.4,0.5 0.5,0.9 h 1.2 c 0,-0.7 -0.3,-1.3 -0.8,-1.7 -0.5,-0.4 -1.1,-0.6 -1.9,-0.6 -0.8,0 -1,0 -1.4,0.3 -0.4,0.2 -0.7,0.4 -0.9,0.7 -0.2,0.3 -0.3,0.6 -0.3,1 0,0.4 0.1,0.8 0.4,1.1 0.2,0.3 0.5,0.5 0.9,0.6 0.3,0.1 0.8,0.3 1.3,0.4 0.6,0.1 1,0.3 1.3,0.5 0.3,0.2 0.4,0.4 0.4,0.7 0,0.3 -0.1,0.6 -0.4,0.8 -0.3,0.2 -0.6,0.3 -1.1,0.3 -0.5,0 -0.9,-0.1 -1.2,-0.3 -0.3,-0.2 -0.5,-0.5 -0.5,-0.9 h -1.2 c 0,0.4 0.2,0.8 0.4,1.2 0.3,0.3 0.6,0.6 1,0.8 0.4,0.2 0.9,0.3 1.5,0.3 0.6,0 1,0 1.4,-0.3 0.4,-0.3 0.7,-0.4 0.9,-0.7 0.2,-0.3 0.3,-0.7 0.3,-1.1 0,-0.4 -0.1,-0.8 -0.4,-1.1 -0.2,-0.3 -0.5,-0.5 -0.8,-0.6 z"
       id="path33" />
    <path
       class="st0"
       d="m 504,397.7 c -0.5,-0.3 -1.1,-0.5 -1.8,-0.5 -0.7,0 -1.3,0.2 -1.9,0.5 -0.5,0.3 -1,0.7 -1.3,1.3 -0.3,0.6 -0.4,1.2 -0.4,2 0,0.8 0.2,1.4 0.5,2 0.3,0.6 0.7,1 1.3,1.3 0.5,0.3 1.2,0.5 1.8,0.5 0.6,0 1.6,-0.2 2.2,-0.7 0.6,-0.4 1,-1 1.2,-1.7 h -1.3 c -0.1,0.4 -0.4,0.7 -0.7,1 -0.3,0.2 -0.8,0.4 -1.3,0.4 -0.5,0 -1.2,-0.2 -1.6,-0.6 -0.4,-0.4 -0.7,-1 -0.7,-1.7 h 5.8 c 0,-0.3 0,-0.5 0,-0.7 0,-0.7 -0.1,-1.3 -0.4,-1.8 -0.3,-0.5 -0.7,-0.9 -1.2,-1.2 z m -4.2,2.7 c 0,-0.7 0.3,-1.2 0.7,-1.6 0.4,-0.4 0.9,-0.6 1.6,-0.6 0.7,0 0.8,0 1.2,0.3 0.3,0.2 0.6,0.4 0.8,0.8 0.2,0.3 0.3,0.7 0.3,1.2 h -4.6 z"
       id="path34" />
    <path
       class="st0"
       d="m 512.9,398.7 c -0.2,-0.4 -0.6,-0.8 -1,-1 -0.5,-0.3 -1,-0.4 -1.7,-0.4 -0.7,0 -1.2,0.2 -1.8,0.5 -0.5,0.3 -0.9,0.7 -1.2,1.3 -0.3,0.6 -0.4,1.2 -0.4,1.9 0,0.7 0.1,1.4 0.4,2 0.3,0.6 0.7,1 1.2,1.3 0.5,0.3 1.1,0.5 1.7,0.5 0.6,0 1.2,-0.1 1.6,-0.4 0.5,-0.3 0.8,-0.6 1.1,-1.1 v 1.3 h 1.2 v -7.2 h -1.2 v 1.3 z m -0.3,3.7 c -0.2,0.4 -0.5,0.7 -0.9,0.9 -0.4,0.2 -0.8,0.3 -1.2,0.3 -0.4,0 -0.9,-0.1 -1.2,-0.3 -0.4,-0.2 -0.7,-0.5 -0.9,-0.9 -0.2,-0.4 -0.3,-0.9 -0.3,-1.4 0,-0.5 0.1,-1 0.3,-1.4 0.2,-0.4 0.5,-0.7 0.9,-0.9 0.4,-0.2 0.8,-0.3 1.2,-0.3 0.4,0 0.9,0.1 1.2,0.3 0.4,0.2 0.7,0.5 0.9,0.9 0.2,0.4 0.3,0.9 0.3,1.4 0,0.5 -0.1,1 -0.3,1.4 z"
       id="path35" />
    <path
       class="st0"
       d="m 516.2,397.3 v 7.2 h 1.2 v -3.9 c 0,-1.5 0.7,-2.2 2,-2.2 h 0.3 v -1.2 c -0.6,0 -1,0.1 -1.4,0.3 -0.4,0.2 -0.7,0.6 -0.9,1 v -1.2 z"
       id="path36" />
    <path
       class="st0"
       d="m 524.2,398.2 c 0.5,0 1,0.1 1.3,0.4 0.4,0.3 0.6,0.6 0.7,1 h 1.3 c -0.2,-0.8 -0.6,-1.4 -1.1,-1.8 -0.6,-0.4 -1.3,-0.6 -2.2,-0.6 -0.9,0 -1.3,0.2 -1.8,0.5 -0.5,0.3 -0.9,0.7 -1.2,1.3 -0.3,0.6 -0.4,1.2 -0.4,2 0,0.8 0.1,1.4 0.4,2 0.3,0.6 0.7,1 1.2,1.3 0.5,0.3 1.1,0.5 1.8,0.5 0.7,0 1.6,-0.2 2.2,-0.7 0.6,-0.4 1,-1 1.2,-1.8 h -1.3 c -0.1,0.5 -0.4,0.8 -0.7,1.1 -0.4,0.2 -0.8,0.4 -1.3,0.4 -0.5,0 -1.2,-0.2 -1.7,-0.7 -0.4,-0.5 -0.6,-1.1 -0.6,-2 0,-0.9 0.2,-1.5 0.6,-2 0.4,-0.5 1,-0.7 1.7,-0.7 z"
       id="path37" />
    <path
       class="st0"
       d="m 534.2,397.6 c -0.4,-0.2 -0.9,-0.3 -1.5,-0.3 -0.6,0 -1,0.1 -1.4,0.3 -0.4,0.2 -0.7,0.5 -1,0.9 v -3.6 h -1.2 v 9.8 h 1.2 v -4 c 0,-0.8 0.2,-1.3 0.6,-1.7 0.4,-0.4 0.9,-0.6 1.5,-0.6 0.6,0 1.1,0.2 1.5,0.6 0.4,0.4 0.5,0.9 0.5,1.7 v 4.1 h 1.2 v -4.3 c 0,-0.7 -0.1,-1.2 -0.4,-1.7 -0.3,-0.5 -0.6,-0.8 -1,-1.1 z"
       id="path38" />
    <path
       class="st0"
       d="m 272.3,412.2 c 0.5,-0.3 1.1,-0.5 1.7,-0.5 0.6,0 1.2,0.2 1.7,0.5 0.5,0.3 0.8,0.7 1.1,1.3 h 1.4 c -0.3,-0.9 -0.9,-1.6 -1.6,-2.1 -0.7,-0.5 -1.6,-0.7 -2.6,-0.7 -1,0 -1.6,0.2 -2.3,0.6 -0.7,0.4 -1.3,1 -1.7,1.7 -0.4,0.7 -0.6,1.5 -0.6,2.4 0,0.9 0.2,1.7 0.6,2.4 0.4,0.7 1,1.3 1.7,1.7 0.7,0.4 1.5,0.6 2.3,0.6 0.8,0 1.9,-0.2 2.6,-0.7 0.7,-0.5 1.3,-1.2 1.6,-2 h -1.4 c -0.3,0.6 -0.6,1 -1.1,1.3 -0.5,0.3 -1.1,0.4 -1.7,0.4 -0.6,0 -1.2,-0.1 -1.7,-0.4 -0.5,-0.3 -0.9,-0.7 -1.2,-1.3 -0.3,-0.6 -0.4,-1.2 -0.4,-1.9 0,-0.7 0.1,-1.4 0.4,-1.9 0.3,-0.6 0.7,-1 1.2,-1.3 z"
       id="path39" />
    <path
       class="st0"
       d="m 285,413.1 c -0.5,-0.3 -1.1,-0.5 -1.8,-0.5 -0.7,0 -1.3,0.2 -1.9,0.5 -0.5,0.3 -1,0.7 -1.3,1.3 -0.3,0.6 -0.5,1.2 -0.5,2 0,0.8 0.2,1.4 0.5,2 0.3,0.6 0.7,1 1.3,1.3 0.5,0.3 1.2,0.5 1.8,0.5 0.6,0 1.6,-0.2 2.2,-0.7 0.6,-0.4 1,-1 1.2,-1.7 h -1.3 c -0.1,0.4 -0.4,0.7 -0.7,1 -0.3,0.2 -0.8,0.4 -1.3,0.4 -0.5,0 -1.2,-0.2 -1.6,-0.6 -0.4,-0.4 -0.7,-1 -0.7,-1.7 h 5.8 c 0,-0.3 0,-0.5 0,-0.7 0,-0.7 -0.1,-1.3 -0.4,-1.8 -0.3,-0.5 -0.7,-0.9 -1.2,-1.2 z m -4.1,2.7 c 0,-0.7 0.3,-1.2 0.7,-1.6 0.4,-0.4 0.9,-0.6 1.6,-0.6 0.7,0 0.8,0 1.2,0.3 0.3,0.2 0.6,0.4 0.8,0.8 0.2,0.3 0.3,0.7 0.3,1.2 h -4.6 z"
       id="path40" />
    <path
       class="st0"
       d="m 291.8,412.6 c -0.5,0 -0.9,0.1 -1.4,0.3 -0.4,0.2 -0.7,0.5 -1,0.9 v -1 h -1.2 v 7.2 h 1.2 v -4 c 0,-0.8 0.2,-1.3 0.6,-1.7 0.4,-0.4 0.9,-0.6 1.5,-0.6 0.6,0 1.1,0.2 1.5,0.6 0.4,0.4 0.5,0.9 0.5,1.7 v 4.1 h 1.2 v -4.3 c 0,-1 -0.3,-1.8 -0.8,-2.3 -0.5,-0.5 -1.3,-0.8 -2.1,-0.8 z"
       id="path41" />
    <path
       class="st0"
       d="M 298.2,410.9 H 297 v 1.8 h -0.9 v 1 h 0.9 v 4.3 c 0,0.7 0.2,1.2 0.5,1.5 0.3,0.3 0.8,0.5 1.5,0.5 h 1.1 v -1 h -0.9 c -0.4,0 -0.6,0 -0.8,-0.2 -0.1,-0.1 -0.2,-0.4 -0.2,-0.7 v -4.3 h 1.9 v -1 h -1.9 V 411 Z"
       id="path42" />
    <path
       class="st0"
       d="m 302.7,413.9 v -1.2 h -1.2 v 7.2 h 1.2 V 416 c 0,-1.5 0.7,-2.2 2,-2.2 h 0.3 v -1.2 c -0.6,0 -1,0.1 -1.4,0.3 -0.4,0.2 -0.7,0.6 -0.9,1 z"
       id="path43" />
    <path
       class="st0"
       d="m 311.5,413.1 c -0.6,-0.3 -1.2,-0.5 -1.9,-0.5 -0.7,0 -1.3,0.2 -1.9,0.5 -0.6,0.3 -1,0.7 -1.3,1.3 -0.3,0.6 -0.5,1.2 -0.5,2 0,0.8 0.2,1.4 0.5,2 0.3,0.6 0.7,1 1.3,1.3 0.6,0.3 1.2,0.5 1.8,0.5 0.6,0 1.3,-0.2 1.9,-0.5 0.6,-0.3 1,-0.7 1.3,-1.3 0.3,-0.6 0.5,-1.2 0.5,-2 0,-0.8 -0.2,-1.4 -0.5,-2 -0.3,-0.6 -0.8,-1 -1.3,-1.3 z m 0.2,4.7 c -0.2,0.4 -0.5,0.7 -0.9,0.9 -0.4,0.2 -0.8,0.3 -1.2,0.3 -0.4,0 -0.8,0 -1.2,-0.3 -0.4,-0.2 -0.7,-0.5 -0.9,-0.9 -0.2,-0.4 -0.3,-0.9 -0.3,-1.5 0,-0.6 0.1,-1.1 0.3,-1.5 0.2,-0.4 0.5,-0.7 0.9,-0.9 0.4,-0.2 0.8,-0.3 1.2,-0.3 0.4,0 0.8,0 1.2,0.3 0.4,0.2 0.7,0.5 0.9,0.9 0.2,0.4 0.3,0.9 0.3,1.5 0,0.6 -0.1,1.1 -0.3,1.5 z"
       id="path44" />
    <path
       class="st0"
       d="m 324.1,415.2 c 0.4,-0.5 0.5,-1 0.5,-1.7 0,-0.7 -0.1,-1 -0.4,-1.4 -0.2,-0.4 -0.6,-0.7 -1.1,-1 -0.5,-0.2 -1.1,-0.4 -1.8,-0.4 h -3 v 9.2 h 1.2 v -3.8 h 1.5 l 2.2,3.8 h 1.4 l -2.3,-3.9 c 0.7,-0.2 1.3,-0.5 1.6,-1 z m -4.5,0 v -3.5 h 1.8 c 0.7,0 1.2,0.2 1.5,0.5 0.3,0.3 0.5,0.7 0.5,1.3 0,0.6 -0.2,1 -0.5,1.3 -0.3,0.3 -0.8,0.5 -1.5,0.5 h -1.8 z"
       id="path45" />
    <path
       class="st0"
       d="m 327.1,409.9 c -0.2,0 -0.4,0 -0.6,0.2 -0.2,0.2 -0.2,0.4 -0.2,0.6 0,0.2 0,0.4 0.2,0.6 0.2,0.2 0.4,0.2 0.6,0.2 0.2,0 0.4,0 0.6,-0.2 0.2,-0.2 0.2,-0.4 0.2,-0.6 0,-0.2 0,-0.4 -0.2,-0.6 -0.2,-0.2 -0.3,-0.2 -0.6,-0.2 z"
       id="path46" />
    <rect
       class="st0"
       x="326.5"
       y="412.70001"
       width="1.2"
       height="7.1999998"
       id="rect46" />
    <path
       class="st0"
       d="m 332.8,413.6 c 0.5,0 1,0.1 1.3,0.4 0.4,0.3 0.6,0.6 0.7,1 h 1.3 c -0.2,-0.8 -0.6,-1.4 -1.1,-1.8 -0.6,-0.4 -1.3,-0.6 -2.2,-0.6 -0.9,0 -1.3,0.2 -1.8,0.5 -0.5,0.3 -0.9,0.7 -1.2,1.3 -0.3,0.6 -0.4,1.2 -0.4,2 0,0.8 0.1,1.4 0.4,2 0.3,0.6 0.7,1 1.2,1.3 0.5,0.3 1.1,0.5 1.8,0.5 0.7,0 1.6,-0.2 2.2,-0.7 0.6,-0.4 1,-1 1.2,-1.8 h -1.3 c -0.1,0.5 -0.4,0.8 -0.7,1.1 -0.4,0.2 -0.8,0.4 -1.3,0.4 -0.5,0 -1.2,-0.2 -1.7,-0.7 -0.4,-0.5 -0.6,-1.1 -0.6,-2 0,-0.9 0.2,-1.5 0.6,-2 0.4,-0.5 1,-0.7 1.7,-0.7 z"
       id="path47" />
    <path
       class="st0"
       d="m 342.7,413.1 c -0.5,-0.3 -1.1,-0.5 -1.8,-0.5 -0.7,0 -1.3,0.2 -1.9,0.5 -0.5,0.3 -1,0.7 -1.3,1.3 -0.3,0.6 -0.5,1.2 -0.5,2 0,0.8 0.2,1.4 0.5,2 0.3,0.6 0.7,1 1.3,1.3 0.5,0.3 1.2,0.5 1.8,0.5 0.6,0 1.6,-0.2 2.2,-0.7 0.6,-0.4 1,-1 1.2,-1.7 h -1.3 c -0.1,0.4 -0.4,0.7 -0.7,1 -0.3,0.2 -0.8,0.4 -1.3,0.4 -0.5,0 -1.2,-0.2 -1.6,-0.6 -0.4,-0.4 -0.7,-1 -0.7,-1.7 h 5.8 c 0,-0.3 0,-0.5 0,-0.7 0,-0.7 -0.1,-1.3 -0.4,-1.8 -0.3,-0.5 -0.7,-0.9 -1.2,-1.2 z m -4.2,2.7 c 0,-0.7 0.3,-1.2 0.7,-1.6 0.4,-0.4 0.9,-0.6 1.6,-0.6 0.7,0 0.8,0 1.2,0.3 0.3,0.2 0.6,0.4 0.8,0.8 0.2,0.3 0.3,0.7 0.3,1.2 h -4.6 z"
       id="path48" />
    <path
       class="st0"
       d="m 347.1,413.9 v -1.2 h -1.2 v 7.2 h 1.2 V 416 c 0,-1.5 0.7,-2.2 2,-2.2 h 0.3 v -1.2 c -0.6,0 -1,0.1 -1.4,0.3 -0.4,0.2 -0.7,0.6 -0.9,1 z"
       id="path49" />
    <path
       class="st0"
       d="m 353.9,413.6 c 0.5,0 1,0.1 1.3,0.4 0.3,0.3 0.6,0.6 0.7,1 h 1.3 c -0.2,-0.8 -0.6,-1.4 -1.1,-1.8 -0.6,-0.4 -1.3,-0.6 -2.2,-0.6 -0.9,0 -1.3,0.2 -1.8,0.5 -0.5,0.3 -0.9,0.7 -1.2,1.3 -0.3,0.6 -0.5,1.2 -0.5,2 0,0.8 0.1,1.4 0.5,2 0.3,0.6 0.7,1 1.2,1.3 0.5,0.3 1.1,0.5 1.8,0.5 0.7,0 1.6,-0.2 2.2,-0.7 0.6,-0.4 1,-1 1.2,-1.8 H 356 c -0.1,0.5 -0.4,0.8 -0.7,1.1 -0.4,0.2 -0.8,0.4 -1.3,0.4 -0.5,0 -1.2,-0.2 -1.7,-0.7 -0.4,-0.5 -0.6,-1.1 -0.6,-2 0,-0.9 0.2,-1.5 0.6,-2 0.4,-0.5 1,-0.7 1.7,-0.7 z"
       id="path50" />
    <path
       class="st0"
       d="m 364,413 c -0.4,-0.2 -0.9,-0.3 -1.5,-0.3 -0.6,0 -1,0.1 -1.4,0.3 -0.4,0.2 -0.7,0.5 -1,0.9 v -3.6 h -1.2 v 9.8 h 1.2 v -4 c 0,-0.8 0.2,-1.3 0.6,-1.7 0.4,-0.4 0.9,-0.6 1.5,-0.6 0.6,0 1.1,0.2 1.5,0.6 0.4,0.4 0.5,0.9 0.5,1.7 v 4.1 h 1.2 v -4.3 c 0,-0.7 -0.1,-1.2 -0.4,-1.7 -0.3,-0.5 -0.6,-0.8 -1,-1.1 z"
       id="path51" />
    <path
       class="st0"
       d="m 372.3,413.1 c -0.5,-0.3 -1.1,-0.5 -1.8,-0.5 -0.7,0 -1.3,0.2 -1.9,0.5 -0.5,0.3 -1,0.7 -1.3,1.3 -0.3,0.6 -0.4,1.2 -0.4,2 0,0.8 0.2,1.4 0.5,2 0.3,0.6 0.7,1 1.3,1.3 0.5,0.3 1.2,0.5 1.8,0.5 0.6,0 1.6,-0.2 2.2,-0.7 0.6,-0.4 1,-1 1.2,-1.7 h -1.3 c -0.1,0.4 -0.4,0.7 -0.7,1 -0.3,0.2 -0.8,0.4 -1.3,0.4 -0.5,0 -1.2,-0.2 -1.6,-0.6 -0.4,-0.4 -0.7,-1 -0.7,-1.7 h 5.8 c 0,-0.3 0,-0.5 0,-0.7 0,-0.7 -0.1,-1.3 -0.4,-1.8 -0.3,-0.5 -0.7,-0.9 -1.2,-1.2 z m -4.2,2.7 c 0,-0.7 0.3,-1.2 0.7,-1.6 0.4,-0.4 0.9,-0.6 1.6,-0.6 0.7,0 0.8,0 1.2,0.3 0.3,0.2 0.6,0.4 0.8,0.8 0.2,0.3 0.3,0.7 0.3,1.2 h -4.6 z"
       id="path52" />
    <polygon
       class="st0"
       points="384,419 380.3,419 380.3,415.8 383.6,415.8 383.6,414.8 380.3,414.8 380.3,411.7 384,411.7 384,410.8 379.1,410.8 379.1,420 384,420 "
       id="polygon52" />
    <path
       class="st0"
       d="m 388.9,413.6 c 0.5,0 1,0.1 1.3,0.4 0.4,0.3 0.6,0.6 0.7,1 h 1.3 c -0.2,-0.8 -0.6,-1.4 -1.1,-1.8 -0.6,-0.4 -1.3,-0.6 -2.2,-0.6 -0.9,0 -1.3,0.2 -1.8,0.5 -0.5,0.3 -0.9,0.7 -1.2,1.3 -0.3,0.6 -0.4,1.2 -0.4,2 0,0.8 0.1,1.4 0.4,2 0.3,0.6 0.7,1 1.2,1.3 0.5,0.3 1.1,0.5 1.8,0.5 0.7,0 1.6,-0.2 2.2,-0.7 0.6,-0.4 1,-1 1.2,-1.8 H 391 c -0.1,0.5 -0.4,0.8 -0.7,1.1 -0.4,0.2 -0.8,0.4 -1.3,0.4 -0.5,0 -1.2,-0.2 -1.7,-0.7 -0.4,-0.5 -0.6,-1.1 -0.6,-2 0,-0.9 0.2,-1.5 0.6,-2 0.4,-0.5 1,-0.7 1.7,-0.7 z"
       id="path53" />
    <path
       class="st0"
       d="m 398.9,413.1 c -0.6,-0.3 -1.2,-0.5 -1.9,-0.5 -0.7,0 -1.3,0.2 -1.9,0.5 -0.6,0.3 -1,0.7 -1.3,1.3 -0.3,0.6 -0.5,1.2 -0.5,2 0,0.8 0.2,1.4 0.5,2 0.3,0.6 0.7,1 1.3,1.3 0.6,0.3 1.2,0.5 1.8,0.5 0.6,0 1.3,-0.2 1.9,-0.5 0.6,-0.3 1,-0.7 1.3,-1.3 0.3,-0.6 0.5,-1.2 0.5,-2 0,-0.8 -0.2,-1.4 -0.5,-2 -0.3,-0.6 -0.8,-1 -1.3,-1.3 z m 0.2,4.7 c -0.2,0.4 -0.5,0.7 -0.9,0.9 -0.4,0.2 -0.8,0.3 -1.2,0.3 -0.4,0 -0.8,0 -1.2,-0.3 -0.4,-0.2 -0.6,-0.5 -0.9,-0.9 -0.2,-0.4 -0.3,-0.9 -0.3,-1.5 0,-0.6 0.1,-1.1 0.3,-1.5 0.2,-0.4 0.5,-0.7 0.9,-0.9 0.4,-0.2 0.8,-0.3 1.2,-0.3 0.4,0 0.8,0 1.2,0.3 0.4,0.2 0.7,0.5 0.9,0.9 0.2,0.4 0.3,0.9 0.3,1.5 0,0.6 -0.1,1.1 -0.3,1.5 z"
       id="path54" />
    <path
       class="st0"
       d="m 405.8,412.6 c -0.5,0 -0.9,0.1 -1.4,0.3 -0.4,0.2 -0.7,0.5 -1,0.9 v -1 h -1.2 v 7.2 h 1.2 v -4 c 0,-0.8 0.2,-1.3 0.6,-1.7 0.4,-0.4 0.9,-0.6 1.5,-0.6 0.6,0 1.1,0.2 1.5,0.6 0.4,0.4 0.5,0.9 0.5,1.7 v 4.1 h 1.2 v -4.3 c 0,-1 -0.3,-1.8 -0.8,-2.3 -0.5,-0.5 -1.3,-0.8 -2.1,-0.8 z"
       id="path55" />
    <path
       class="st0"
       d="m 415.8,413.1 c -0.6,-0.3 -1.2,-0.5 -1.9,-0.5 -0.7,0 -1.3,0.2 -1.9,0.5 -0.6,0.3 -1,0.7 -1.3,1.3 -0.3,0.6 -0.5,1.2 -0.5,2 0,0.8 0.2,1.4 0.5,2 0.3,0.6 0.7,1 1.3,1.3 0.6,0.3 1.2,0.5 1.8,0.5 0.6,0 1.3,-0.2 1.9,-0.5 0.6,-0.3 1,-0.7 1.3,-1.3 0.3,-0.6 0.5,-1.2 0.5,-2 0,-0.8 -0.2,-1.4 -0.5,-2 -0.3,-0.6 -0.8,-1 -1.3,-1.3 z m 0.3,4.7 c -0.2,0.4 -0.5,0.7 -0.9,0.9 -0.4,0.2 -0.8,0.3 -1.2,0.3 -0.4,0 -0.8,0 -1.2,-0.3 -0.4,-0.2 -0.6,-0.5 -0.9,-0.9 -0.2,-0.4 -0.3,-0.9 -0.3,-1.5 0,-0.6 0.1,-1.1 0.3,-1.5 0.2,-0.4 0.5,-0.7 0.9,-0.9 0.4,-0.2 0.8,-0.3 1.2,-0.3 0.4,0 0.8,0 1.2,0.3 0.4,0.2 0.7,0.5 0.9,0.9 0.2,0.4 0.3,0.9 0.3,1.5 0,0.6 -0.1,1.1 -0.3,1.5 z"
       id="path56" />
    <path
       class="st0"
       d="m 429.4,413 c -0.4,-0.2 -0.9,-0.3 -1.5,-0.3 -0.6,0 -1.1,0.1 -1.6,0.4 -0.5,0.3 -0.8,0.7 -1,1.2 -0.2,-0.5 -0.6,-0.9 -1,-1.2 -0.5,-0.3 -1,-0.4 -1.6,-0.4 -0.6,0 -0.9,0.1 -1.3,0.3 -0.4,0.2 -0.7,0.5 -1,0.9 v -1 h -1.2 v 7.2 h 1.2 v -4 c 0,-0.8 0.2,-1.3 0.6,-1.7 0.4,-0.4 0.9,-0.6 1.5,-0.6 0.6,0 1.1,0.2 1.4,0.6 0.4,0.4 0.5,0.9 0.5,1.7 v 4.1 h 1.2 v -4 c 0,-0.8 0.2,-1.3 0.6,-1.7 0.4,-0.4 0.9,-0.6 1.5,-0.6 0.6,0 1.1,0.2 1.4,0.6 0.4,0.4 0.5,0.9 0.5,1.7 v 4.1 h 1.2 V 416 c 0,-0.7 -0.1,-1.2 -0.4,-1.7 -0.3,-0.5 -0.6,-0.8 -1,-1.1 z"
       id="path57" />
    <rect
       class="st0"
       x="432.79999"
       y="412.70001"
       width="1.2"
       height="7.1999998"
       id="rect57" />
    <path
       class="st0"
       d="m 433.5,409.9 c -0.2,0 -0.4,0 -0.6,0.2 -0.2,0.2 -0.2,0.4 -0.2,0.6 0,0.2 0,0.4 0.2,0.6 0.2,0.2 0.4,0.2 0.6,0.2 0.2,0 0.4,0 0.6,-0.2 0.2,-0.2 0.2,-0.4 0.2,-0.6 0,-0.2 0,-0.4 -0.2,-0.6 -0.2,-0.2 -0.3,-0.2 -0.6,-0.2 z"
       id="path58" />
    <path
       class="st0"
       d="m 439.2,413.6 c 0.5,0 1,0.1 1.3,0.4 0.3,0.3 0.6,0.6 0.7,1 h 1.3 c -0.2,-0.8 -0.6,-1.4 -1.1,-1.8 -0.6,-0.4 -1.3,-0.6 -2.2,-0.6 -0.9,0 -1.3,0.2 -1.8,0.5 -0.5,0.3 -0.9,0.7 -1.2,1.3 -0.3,0.6 -0.4,1.2 -0.4,2 0,0.8 0.1,1.4 0.4,2 0.3,0.6 0.7,1 1.2,1.3 0.5,0.3 1.1,0.5 1.8,0.5 0.7,0 1.6,-0.2 2.2,-0.7 0.6,-0.4 1,-1 1.2,-1.8 h -1.3 c -0.1,0.5 -0.4,0.8 -0.7,1.1 -0.4,0.2 -0.8,0.4 -1.3,0.4 -0.5,0 -1.2,-0.2 -1.7,-0.7 -0.4,-0.5 -0.6,-1.1 -0.6,-2 0,-0.9 0.2,-1.5 0.6,-2 0.4,-0.5 1,-0.7 1.7,-0.7 z"
       id="path59" />
    <path
       class="st0"
       d="m 449.2,413 c -0.4,-0.2 -0.9,-0.3 -1.5,-0.3 -0.6,0 -1,0.1 -1.4,0.3 -0.4,0.2 -0.7,0.5 -1,0.9 v -3.6 h -1.2 v 9.8 h 1.2 v -4 c 0,-0.8 0.2,-1.3 0.6,-1.7 0.4,-0.4 0.9,-0.6 1.5,-0.6 0.6,0 1.1,0.2 1.5,0.6 0.4,0.4 0.5,0.9 0.5,1.7 v 4.1 h 1.2 v -4.3 c 0,-0.7 -0.1,-1.2 -0.4,-1.7 -0.3,-0.5 -0.6,-0.8 -1,-1.1 z"
       id="path60" />
    <path
       class="st0"
       d="m 457.5,413.1 c -0.5,-0.3 -1.1,-0.5 -1.8,-0.5 -0.7,0 -1.3,0.2 -1.9,0.5 -0.5,0.3 -1,0.7 -1.3,1.3 -0.3,0.6 -0.4,1.2 -0.4,2 0,0.8 0.2,1.4 0.5,2 0.3,0.6 0.7,1 1.3,1.3 0.5,0.3 1.2,0.5 1.8,0.5 0.6,0 1.6,-0.2 2.2,-0.7 0.6,-0.4 1,-1 1.2,-1.7 h -1.3 c -0.1,0.4 -0.4,0.7 -0.7,1 -0.3,0.2 -0.8,0.4 -1.3,0.4 -0.5,0 -1.2,-0.2 -1.6,-0.6 -0.4,-0.4 -0.7,-1 -0.7,-1.7 h 5.8 c 0,-0.3 0,-0.5 0,-0.7 0,-0.7 -0.1,-1.3 -0.4,-1.8 -0.3,-0.5 -0.7,-0.9 -1.2,-1.2 z m -4.1,2.7 c 0,-0.7 0.3,-1.2 0.7,-1.6 0.4,-0.4 0.9,-0.6 1.6,-0.6 0.7,0 0.8,0 1.2,0.3 0.3,0.2 0.6,0.4 0.8,0.8 0.2,0.3 0.3,0.7 0.3,1.2 h -4.6 z"
       id="path61" />
    <polygon
       class="st0"
       points="464.3,410.8 464.3,420 465.5,420 465.5,412.6 470.3,420 471.5,420 471.5,410.8 470.3,410.8 470.3,418.1 465.5,410.8 "
       id="polygon61" />
    <path
       class="st0"
       d="m 478.6,413.1 c -0.6,-0.3 -1.2,-0.5 -1.9,-0.5 -0.7,0 -1.3,0.2 -1.9,0.5 -0.6,0.3 -1,0.7 -1.3,1.3 -0.3,0.6 -0.5,1.2 -0.5,2 0,0.8 0.2,1.4 0.5,2 0.3,0.6 0.7,1 1.3,1.3 0.6,0.3 1.2,0.5 1.8,0.5 0.6,0 1.3,-0.2 1.9,-0.5 0.6,-0.3 1,-0.7 1.3,-1.3 0.3,-0.6 0.5,-1.2 0.5,-2 0,-0.8 -0.2,-1.4 -0.5,-2 -0.3,-0.6 -0.8,-1 -1.3,-1.3 z m 0.3,4.7 c -0.2,0.4 -0.5,0.7 -0.9,0.9 -0.4,0.2 -0.8,0.3 -1.2,0.3 -0.4,0 -0.8,0 -1.2,-0.3 -0.4,-0.2 -0.6,-0.5 -0.9,-0.9 -0.2,-0.4 -0.3,-0.9 -0.3,-1.5 0,-0.6 0.1,-1.1 0.3,-1.5 0.2,-0.4 0.5,-0.7 0.9,-0.9 0.4,-0.2 0.8,-0.3 1.2,-0.3 0.4,0 0.8,0 1.2,0.3 0.4,0.2 0.7,0.5 0.9,0.9 0.2,0.4 0.3,0.9 0.3,1.5 0,0.6 -0.1,1.1 -0.3,1.5 z"
       id="path62" />
    <path
       class="st0"
       d="m 483.2,413.9 v -1.2 H 482 v 7.2 h 1.2 V 416 c 0,-1.5 0.7,-2.2 2,-2.2 h 0.3 v -1.2 c -0.6,0 -1,0.1 -1.4,0.3 -0.4,0.2 -0.7,0.6 -0.9,1 z"
       id="path63" />
    <path
       class="st0"
       d="m 492.6,414 c -0.3,-0.4 -0.6,-0.8 -1.1,-1 -0.5,-0.3 -1,-0.4 -1.6,-0.4 -0.6,0 -1.2,0.2 -1.8,0.5 -0.5,0.3 -0.9,0.7 -1.2,1.3 -0.3,0.6 -0.4,1.2 -0.4,1.9 0,0.7 0.1,1.4 0.4,2 0.3,0.6 0.7,1 1.2,1.3 0.5,0.3 1.1,0.5 1.8,0.5 0.7,0 1.2,-0.1 1.6,-0.4 0.5,-0.3 0.8,-0.6 1.1,-1.1 v 1.4 h 1.2 v -9.8 h -1.2 z m -0.3,3.8 c -0.2,0.4 -0.5,0.7 -0.9,0.9 -0.4,0.2 -0.8,0.3 -1.2,0.3 -0.4,0 -0.9,-0.1 -1.2,-0.3 -0.4,-0.2 -0.7,-0.5 -0.9,-0.9 -0.2,-0.4 -0.3,-0.9 -0.3,-1.4 0,-0.5 0.1,-1 0.3,-1.4 0.2,-0.4 0.5,-0.7 0.9,-0.9 0.4,-0.2 0.8,-0.3 1.2,-0.3 0.4,0 0.9,0.1 1.2,0.3 0.4,0.2 0.7,0.5 0.9,0.9 0.2,0.4 0.3,0.9 0.3,1.4 0,0.5 -0.1,1 -0.3,1.4 z"
       id="path64" />
    <path
       class="st0"
       d="m 504,415.3 c -0.4,-0.2 -0.9,-0.3 -1.5,-0.5 -0.5,-0.1 -0.9,-0.3 -1.2,-0.4 -0.3,-0.1 -0.5,-0.3 -0.7,-0.5 -0.2,-0.2 -0.3,-0.5 -0.3,-0.8 0,-0.3 0.2,-0.8 0.5,-1.1 0.3,-0.3 0.7,-0.4 1.2,-0.4 0.5,0 1,0.1 1.3,0.4 0.3,0.3 0.5,0.6 0.6,0.9 h 1.3 c 0,-0.7 -0.4,-1.3 -0.9,-1.7 -0.6,-0.4 -1.3,-0.6 -2.1,-0.6 -0.8,0 -1.1,0.1 -1.6,0.3 -0.5,0.2 -0.8,0.5 -1.1,0.9 -0.3,0.4 -0.4,0.8 -0.4,1.3 0,0.5 0.1,1 0.4,1.4 0.3,0.3 0.6,0.6 0.9,0.7 0.4,0.2 0.9,0.3 1.5,0.5 0.5,0.1 0.9,0.3 1.2,0.4 0.3,0.1 0.5,0.3 0.7,0.5 0.2,0.2 0.3,0.5 0.3,0.9 0,0.4 -0.2,0.8 -0.5,1.1 -0.3,0.3 -0.8,0.4 -1.4,0.4 -0.6,0 -1.1,-0.1 -1.4,-0.4 -0.3,-0.3 -0.5,-0.7 -0.5,-1.1 H 499 c 0,0.5 0.1,0.9 0.4,1.3 0.3,0.4 0.6,0.7 1.1,0.9 0.5,0.2 1,0.3 1.6,0.3 0.6,0 1.2,-0.1 1.7,-0.4 0.5,-0.2 0.8,-0.6 1.1,-1 0.2,-0.4 0.4,-0.8 0.4,-1.3 0,-0.5 -0.1,-1 -0.4,-1.4 -0.3,-0.3 -0.6,-0.6 -1,-0.8 z"
       id="path65" />
    <path
       class="st0"
       d="m 512.4,416.7 c 0,0.8 -0.2,1.3 -0.6,1.7 -0.4,0.4 -0.9,0.6 -1.5,0.6 -0.6,0 -1.1,-0.2 -1.5,-0.6 -0.4,-0.4 -0.5,-0.9 -0.5,-1.6 v -4.1 h -1.2 v 4.2 c 0,0.7 0.1,1.2 0.4,1.7 0.3,0.5 0.6,0.8 1.1,1.1 0.4,0.2 1,0.3 1.5,0.3 0.5,0 0.9,-0.1 1.4,-0.3 0.4,-0.2 0.7,-0.5 1,-0.9 v 1.1 h 1.2 v -7.2 h -1.2 v 4 z"
       id="path66" />
    <path
       class="st0"
       d="m 521.3,414 c -0.3,-0.4 -0.6,-0.8 -1.1,-1 -0.5,-0.3 -1,-0.4 -1.6,-0.4 -0.6,0 -1.2,0.2 -1.8,0.5 -0.5,0.3 -0.9,0.7 -1.2,1.3 -0.3,0.6 -0.4,1.2 -0.4,1.9 0,0.7 0.1,1.4 0.4,2 0.3,0.6 0.7,1 1.2,1.3 0.5,0.3 1.1,0.5 1.8,0.5 0.7,0 1.2,-0.1 1.6,-0.4 0.5,-0.3 0.8,-0.6 1.1,-1.1 v 1.4 h 1.2 v -9.8 h -1.2 z m -0.3,3.8 c -0.2,0.4 -0.5,0.7 -0.9,0.9 -0.4,0.2 -0.8,0.3 -1.2,0.3 -0.4,0 -0.9,-0.1 -1.2,-0.3 -0.4,-0.2 -0.7,-0.5 -0.9,-0.9 -0.2,-0.4 -0.3,-0.9 -0.3,-1.4 0,-0.5 0.1,-1 0.3,-1.4 0.2,-0.4 0.5,-0.7 0.9,-0.9 0.4,-0.2 0.8,-0.3 1.2,-0.3 0.4,0 0.9,0.1 1.2,0.3 0.4,0.2 0.7,0.5 0.9,0.9 0.2,0.4 0.3,0.9 0.3,1.4 0,0.5 -0.1,1 -0.3,1.4 z"
       id="path67" />
  </g>
  <g
     id="g90"
     transform="translate(-227.5,-191.8)">
    <path
       class="st0"
       d="m 233.7,379 c 0,0.8 -0.2,1.3 -0.6,1.7 -0.4,0.4 -1,0.6 -1.7,0.6 -0.7,0 -1.3,-0.2 -1.7,-0.6 -0.4,-0.4 -0.6,-1 -0.6,-1.7 v -6.4 h -1.6 v 6.4 c 0,0.8 0.2,1.5 0.5,2.1 0.3,0.6 0.8,1 1.4,1.3 0.6,0.3 1.2,0.4 2,0.4 0.8,0 1.4,-0.1 2,-0.4 0.6,-0.3 1.1,-0.7 1.4,-1.3 0.4,-0.6 0.5,-1.3 0.5,-2.1 v -6.4 h -1.6 z"
       id="path68" />
    <polygon
       class="st0"
       points="237.4,372.6 237.4,382.6 239.1,382.6 239.1,375.1 244,382.6 245.7,382.6 245.7,372.6 244,372.6 244,380 239.1,372.6 "
       id="polygon68" />
    <rect
       class="st0"
       x="247.8"
       y="372.60001"
       width="1.6"
       height="10"
       id="rect68" />
    <polygon
       class="st0"
       points="255.6,380.9 252.6,372.6 250.8,372.6 254.6,382.6 256.5,382.6 260.3,372.6 258.6,372.6 "
       id="polygon69" />
    <polygon
       class="st0"
       points="261.7,372.6 261.7,382.6 267.2,382.6 267.2,381.3 263.3,381.3 263.3,378.2 266.8,378.2 266.8,376.9 263.3,376.9 263.3,373.9 267.2,373.9 267.2,372.6 "
       id="polygon70" />
    <path
       class="st0"
       d="m 275.7,377.4 c 0.4,-0.5 0.6,-1.1 0.6,-1.8 0,-0.7 -0.1,-1.1 -0.4,-1.5 -0.3,-0.4 -0.7,-0.8 -1.2,-1.1 -0.5,-0.3 -1.2,-0.4 -2,-0.4 h -3.5 v 10 h 1.6 v -4 h 1.3 l 2.3,4 h 2 l -2.5,-4.2 c 0.8,-0.2 1.4,-0.6 1.8,-1.1 z m -1.6,-0.6 c -0.3,0.3 -0.8,0.5 -1.4,0.5 h -1.8 v -3.4 h 1.8 c 0.6,0 1.1,0.1 1.4,0.4 0.3,0.3 0.5,0.7 0.5,1.2 0,0.5 -0.2,0.9 -0.5,1.2 z"
       id="path70" />
    <path
       class="st0"
       d="m 281.6,381.3 c -0.5,0 -1,-0.1 -1.3,-0.4 -0.3,-0.3 -0.5,-0.6 -0.5,-1.1 H 278 c 0,0.6 0.2,1.1 0.5,1.5 0.3,0.4 0.7,0.8 1.3,1 0.5,0.2 1.1,0.4 1.8,0.4 0.7,0 1.3,-0.1 1.9,-0.4 0.5,-0.3 0.9,-0.6 1.2,-1.1 0.3,-0.5 0.4,-0.9 0.4,-1.4 0,-0.5 -0.1,-1.1 -0.4,-1.5 -0.3,-0.4 -0.6,-0.7 -1.1,-0.8 -0.4,-0.2 -1,-0.4 -1.6,-0.5 -0.5,-0.1 -0.9,-0.3 -1.2,-0.4 -0.3,-0.1 -0.5,-0.3 -0.7,-0.5 -0.2,-0.2 -0.3,-0.4 -0.3,-0.8 0,-0.5 0.1,-0.8 0.4,-1 0.3,-0.2 0.7,-0.4 1.2,-0.4 0.5,0 0.9,0.1 1.3,0.4 0.3,0.3 0.5,0.6 0.5,0.9 h 1.8 c 0,-0.8 -0.4,-1.5 -1,-2 -0.6,-0.5 -1.4,-0.7 -2.4,-0.7 -1,0 -1.3,0.1 -1.8,0.3 -0.5,0.2 -0.9,0.6 -1.2,1 -0.3,0.4 -0.4,0.9 -0.4,1.5 0,0.6 0.1,1.1 0.4,1.5 0.3,0.4 0.6,0.7 1,0.8 0.4,0.2 0.9,0.4 1.6,0.5 0.5,0.1 0.9,0.3 1.2,0.4 0.3,0.1 0.5,0.3 0.7,0.5 0.2,0.2 0.3,0.5 0.3,0.8 0,0.3 -0.2,0.8 -0.5,1.1 -0.3,0.3 -0.8,0.4 -1.3,0.4 z"
       id="path71" />
    <rect
       class="st0"
       x="287"
       y="372.60001"
       width="1.6"
       height="10"
       id="rect71" />
    <polygon
       class="st0"
       points="294.7,373.9 297.3,373.9 297.3,372.6 290.3,372.6 290.3,373.9 293,373.9 293,382.6 294.7,382.6 "
       id="polygon71" />
    <path
       class="st0"
       d="m 305.8,382.6 h 1.7 l -3.6,-10 H 302 l -3.6,10 h 1.7 l 0.7,-2 h 4.2 l 0.7,2 z m -4.5,-3.4 1.6,-4.7 1.6,4.7 h -3.3 z"
       id="path72" />
    <polygon
       class="st0"
       points="304.4,370.8 301.2,369 301.2,370.4 304.4,372 "
       id="polygon72" />
    <path
       class="st0"
       d="m 318.9,373.2 c -0.8,-0.4 -1.7,-0.6 -2.8,-0.6 h -3.3 v 10 h 3.3 c 1.1,0 2,-0.2 2.8,-0.6 0.8,-0.4 1.4,-1 1.9,-1.7 0.5,-0.7 0.7,-1.6 0.7,-2.7 0,-1.1 -0.2,-1.9 -0.7,-2.7 -0.5,-0.8 -1.1,-1.4 -1.9,-1.8 z m -0.1,7.1 c -0.6,0.6 -1.5,1 -2.7,1 h -1.6 V 374 h 1.6 c 1.2,0 2.1,0.3 2.7,1 0.6,0.7 0.9,1.6 0.9,2.7 0,1.1 -0.3,2 -0.9,2.7 z"
       id="path73" />
    <rect
       class="st0"
       x="323"
       y="372.60001"
       width="1.6"
       height="10"
       id="rect73" />
    <path
       class="st0"
       d="m 335.1,374.6 c 0.5,0 0.9,0.1 1.3,0.3 0.4,0.2 0.7,0.5 0.9,1 h 2.7 c -0.3,-1.1 -0.9,-2 -1.7,-2.6 -0.9,-0.6 -1.9,-1 -3.1,-1 -1.2,0 -1.9,0.2 -2.6,0.7 -0.8,0.4 -1.4,1 -1.8,1.8 -0.4,0.8 -0.6,1.7 -0.6,2.7 0,1 0.2,1.9 0.6,2.7 0.4,0.8 1,1.4 1.8,1.8 0.8,0.4 1.7,0.7 2.6,0.7 0.9,0 2.2,-0.3 3.1,-0.9 0.9,-0.6 1.4,-1.5 1.7,-2.6 h -2.7 c -0.2,0.4 -0.5,0.7 -0.9,1 -0.4,0.2 -0.8,0.3 -1.3,0.3 -0.8,0 -1.4,-0.3 -1.8,-0.8 -0.5,-0.5 -0.7,-1.2 -0.7,-2.1 0,-0.9 0.2,-1.6 0.7,-2.1 0.5,-0.5 1.1,-0.8 1.8,-0.8 z"
       id="path74" />
    <path
       class="st0"
       d="m 344.5,372.5 -3.7,10.1 h 2.6 l 0.6,-1.8 h 3.8 l 0.6,1.8 h 2.6 l -3.7,-10.1 h -2.9 z m 0.2,6.4 1.2,-3.7 1.3,3.7 z"
       id="path75" />
    <path
       class="st0"
       d="m 356.8,374.7 c 0.5,0 0.9,0 1.2,0.3 0.3,0.2 0.6,0.4 0.8,0.8 h 2.7 c -0.3,-1 -0.8,-1.9 -1.7,-2.4 -0.8,-0.6 -1.9,-0.9 -3.1,-0.9 -1.2,0 -1.9,0.2 -2.7,0.7 -0.8,0.5 -1.4,1 -1.8,1.8 -0.4,0.8 -0.7,1.7 -0.7,2.7 0,1 0.2,1.9 0.7,2.7 0.4,0.8 1,1.4 1.8,1.8 0.8,0.4 1.7,0.7 2.7,0.7 1,0 1.6,-0.2 2.3,-0.5 0.7,-0.3 1.2,-0.8 1.7,-1.3 0.4,-0.5 0.7,-1.1 0.9,-1.7 v -2.3 h -5.4 v 1.8 h 3.1 c -0.2,0.6 -0.5,1 -0.9,1.3 -0.4,0.3 -0.9,0.5 -1.5,0.5 -0.9,0 -1.6,-0.3 -2.1,-0.8 -0.5,-0.5 -0.8,-1.3 -0.8,-2.2 0,-0.9 0.2,-1.6 0.7,-2.1 0.5,-0.5 1.1,-0.8 1.9,-0.8 z"
       id="path76" />
    <polygon
       class="st0"
       points="368.8,382.6 368.8,380.7 365.6,380.7 365.6,372.5 363.1,372.5 363.1,382.6 "
       id="polygon76" />
    <rect
       class="st0"
       x="370"
       y="372.5"
       width="2.5"
       height="10.1"
       id="rect76" />
    <path
       class="st0"
       d="m 373.6,382.6 h 2.6 l 0.6,-1.8 h 3.8 l 0.6,1.8 h 2.6 l -3.7,-10.1 h -2.9 l -3.7,10.1 z m 5.1,-7.4 1.3,3.7 h -2.5 z"
       id="path77" />
    <path
       class="st0"
       d="m 387.3,378.8 h 0.6 l 2.1,3.8 h 2.8 l -2.3,-4 c 0.7,-0.2 1.3,-0.6 1.7,-1.1 0.4,-0.5 0.6,-1.1 0.6,-1.8 0,-0.7 -0.1,-1.1 -0.4,-1.6 -0.3,-0.5 -0.7,-0.9 -1.3,-1.1 -0.6,-0.3 -1.2,-0.4 -2,-0.4 H 385 v 10.1 h 2.5 v -3.8 z m 0,-4.3 h 1.5 c 0.5,0 0.8,0.1 1,0.3 0.2,0.2 0.3,0.5 0.3,0.9 0,0.4 -0.1,0.7 -0.3,0.9 -0.2,0.2 -0.6,0.3 -1,0.3 h -1.5 v -2.5 z"
       id="path78" />
    <rect
       class="st0"
       x="394.29999"
       y="372.5"
       width="2.5"
       height="10.1"
       id="rect78" />
    <path
       class="st0"
       d="m 403.7,382.3 c 0.6,0.3 1.2,0.4 2,0.4 0.8,0 1.4,-0.1 2,-0.4 0.6,-0.3 1.1,-0.7 1.4,-1.3 0.3,-0.6 0.5,-1.3 0.5,-2.1 v -6.4 H 408 v 6.4 c 0,0.8 -0.2,1.3 -0.6,1.7 -0.4,0.4 -1,0.6 -1.7,0.6 -0.7,0 -1.3,-0.2 -1.7,-0.6 -0.4,-0.4 -0.6,-1 -0.6,-1.7 v -6.4 h -1.6 v 6.4 c 0,0.8 0.2,1.5 0.5,2.1 0.3,0.6 0.8,1 1.4,1.3 z"
       id="path79" />
    <polygon
       class="st0"
       points="420,382.6 420,372.6 418.3,372.6 418.3,380 413.4,372.6 411.7,372.6 411.7,382.6 413.4,382.6 413.4,375.1 418.3,382.6 "
       id="polygon79" />
    <rect
       class="st0"
       x="422.10001"
       y="372.60001"
       width="1.6"
       height="10"
       id="rect79" />
    <polygon
       class="st0"
       points="429.9,380.9 426.9,372.6 425.1,372.6 428.9,382.6 430.8,382.6 434.6,372.6 432.8,372.6 "
       id="polygon80" />
    <polygon
       class="st0"
       points="435.9,372.6 435.9,382.6 441.5,382.6 441.5,381.3 437.6,381.3 437.6,378.2 441.1,378.2 441.1,376.9 437.6,376.9 437.6,373.9 441.5,373.9 441.5,372.6 "
       id="polygon81" />
    <path
       class="st0"
       d="m 445.2,378.6 h 1.3 l 2.3,4 h 2 l -2.5,-4.2 c 0.8,-0.2 1.4,-0.6 1.8,-1.1 0.4,-0.5 0.6,-1.1 0.6,-1.8 0,-0.7 -0.1,-1.1 -0.4,-1.5 -0.3,-0.4 -0.7,-0.8 -1.2,-1.1 -0.5,-0.3 -1.2,-0.4 -2,-0.4 h -3.5 v 10 h 1.6 v -4 z m 0,-4.7 h 1.8 c 0.6,0 1.1,0.1 1.4,0.4 0.3,0.3 0.5,0.7 0.5,1.2 0,0.5 -0.2,0.9 -0.5,1.2 -0.3,0.3 -0.8,0.5 -1.4,0.5 h -1.8 v -3.4 z"
       id="path81" />
    <path
       class="st0"
       d="m 457.9,377.4 c -0.4,-0.2 -1,-0.4 -1.6,-0.5 -0.5,-0.1 -0.9,-0.3 -1.2,-0.4 -0.3,-0.1 -0.5,-0.3 -0.7,-0.5 -0.2,-0.2 -0.3,-0.4 -0.3,-0.8 0,-0.5 0.1,-0.8 0.4,-1 0.3,-0.2 0.7,-0.4 1.2,-0.4 0.5,0 0.9,0.1 1.3,0.4 0.4,0.3 0.5,0.6 0.5,0.9 h 1.8 c 0,-0.8 -0.4,-1.5 -1,-2 -0.6,-0.5 -1.4,-0.7 -2.4,-0.7 -1,0 -1.3,0.1 -1.8,0.3 -0.5,0.2 -0.9,0.6 -1.2,1 -0.3,0.4 -0.4,0.9 -0.4,1.5 0,0.6 0.1,1.1 0.4,1.5 0.3,0.4 0.6,0.7 1,0.8 0.4,0.2 0.9,0.4 1.6,0.5 0.5,0.1 0.9,0.3 1.2,0.4 0.3,0.1 0.5,0.3 0.7,0.5 0.2,0.2 0.3,0.5 0.3,0.8 0,0.3 -0.2,0.8 -0.5,1.1 -0.3,0.3 -0.8,0.4 -1.3,0.4 -0.5,0 -1,-0.1 -1.3,-0.4 -0.3,-0.3 -0.5,-0.6 -0.5,-1.1 h -1.8 c 0,0.6 0.2,1.1 0.5,1.5 0.3,0.4 0.7,0.8 1.3,1 0.5,0.2 1.1,0.4 1.8,0.4 0.7,0 1.3,-0.1 1.9,-0.4 0.5,-0.3 0.9,-0.6 1.2,-1.1 0.3,-0.5 0.4,-0.9 0.4,-1.4 0,-0.5 -0.1,-1.1 -0.4,-1.5 -0.3,-0.4 -0.6,-0.7 -1.1,-0.8 z"
       id="path82" />
    <rect
       class="st0"
       x="461.29999"
       y="372.60001"
       width="1.6"
       height="10"
       id="rect82" />
    <polygon
       class="st0"
       points="467.3,382.6 468.9,382.6 468.9,373.9 471.6,373.9 471.6,372.6 464.6,372.6 464.6,373.9 467.3,373.9 "
       id="polygon82" />
    <path
       class="st0"
       d="m 475.1,380.6 h 4.2 l 0.7,2 h 1.7 l -3.6,-10 h -1.9 l -3.6,10 h 1.7 l 0.7,-2 z m 2.1,-6 1.6,4.7 h -3.3 l 1.6,-4.7 z"
       id="path83" />
    <polygon
       class="st0"
       points="475.5,369 475.5,370.4 478.7,372 478.7,370.8 "
       id="polygon83" />
    <path
       class="st0"
       d="m 487.1,382.6 h 3.3 c 1.1,0 2,-0.2 2.8,-0.6 0.8,-0.4 1.4,-1 1.9,-1.7 0.5,-0.7 0.7,-1.6 0.7,-2.7 0,-1.1 -0.2,-1.9 -0.7,-2.7 -0.5,-0.8 -1.1,-1.4 -1.9,-1.8 -0.8,-0.4 -1.7,-0.6 -2.8,-0.6 h -3.3 v 10 z m 1.6,-8.7 h 1.6 c 1.2,0 2.1,0.3 2.7,1 0.6,0.7 0.9,1.6 0.9,2.7 0,1.1 -0.3,2 -0.9,2.7 -0.6,0.6 -1.5,1 -2.7,1 h -1.6 V 374 Z"
       id="path84" />
    <rect
       class="st0"
       x="497.29999"
       y="372.60001"
       width="1.6"
       height="10"
       id="rect84" />
    <path
       class="st0"
       d="m 510.4,382.3 c 0.6,-0.3 1,-0.7 1.3,-1.1 0.3,-0.5 0.4,-1 0.4,-1.6 0,-0.6 -0.1,-1.1 -0.4,-1.5 -0.3,-0.4 -0.7,-0.7 -1.1,-0.9 -0.4,-0.2 -0.9,-0.4 -1.6,-0.6 -0.7,-0.2 -1.1,-0.4 -1.4,-0.6 -0.3,-0.2 -0.5,-0.4 -0.5,-0.8 0,-0.4 0,-0.5 0.3,-0.7 0.2,-0.2 0.4,-0.2 0.7,-0.2 0.3,0 0.6,0 0.9,0.3 0.2,0.2 0.3,0.4 0.4,0.8 h 2.7 c 0,-1 -0.4,-1.7 -1.1,-2.2 -0.7,-0.5 -1.6,-0.8 -2.7,-0.8 -1.1,0 -2,0.3 -2.7,0.8 -0.7,0.5 -1,1.3 -1,2.2 0,0.9 0.1,1.1 0.4,1.5 0.3,0.4 0.7,0.7 1.1,0.9 0.4,0.2 0.9,0.4 1.6,0.6 0.5,0.1 0.8,0.3 1,0.4 0.2,0.1 0.5,0.2 0.6,0.4 0.2,0.2 0.3,0.4 0.3,0.6 0,0.2 -0.1,0.5 -0.3,0.7 -0.2,0.2 -0.5,0.3 -0.9,0.3 -0.4,0 -0.6,0 -0.9,-0.3 -0.2,-0.2 -0.4,-0.5 -0.4,-0.9 h -2.6 c 0,0.7 0.2,1.2 0.6,1.7 0.4,0.5 0.8,0.8 1.4,1.1 0.6,0.3 1.2,0.4 2,0.4 0.8,0 1.4,-0.1 2,-0.4 z"
       id="path85" />
    <path
       class="st0"
       d="m 520.6,382.6 h 2.6 l -3.7,-10.1 h -2.9 l -3.7,10.1 h 2.6 l 0.6,-1.8 h 3.8 l 0.6,1.8 z m -3.8,-3.7 1.2,-3.7 1.3,3.7 z"
       id="path86" />
    <path
       class="st0"
       d="m 531.2,381.2 c 0.3,-0.5 0.4,-1 0.4,-1.6 0,-0.6 -0.1,-1.1 -0.4,-1.5 -0.3,-0.4 -0.7,-0.7 -1.1,-0.9 -0.4,-0.2 -0.9,-0.4 -1.6,-0.6 -0.7,-0.2 -1.1,-0.4 -1.4,-0.6 -0.3,-0.2 -0.5,-0.4 -0.5,-0.8 0,-0.4 0,-0.5 0.3,-0.7 0.2,-0.2 0.4,-0.2 0.7,-0.2 0.3,0 0.6,0 0.9,0.3 0.2,0.2 0.3,0.4 0.4,0.8 h 2.7 c 0,-1 -0.4,-1.7 -1.1,-2.2 -0.7,-0.5 -1.6,-0.8 -2.7,-0.8 -1.1,0 -2,0.3 -2.7,0.8 -0.7,0.5 -1,1.3 -1,2.2 0,0.9 0.1,1.1 0.4,1.5 0.3,0.4 0.7,0.7 1.1,0.9 0.4,0.2 0.9,0.4 1.6,0.6 0.5,0.1 0.8,0.3 1,0.4 0.2,0.1 0.5,0.2 0.6,0.4 0.2,0.2 0.3,0.4 0.3,0.6 0,0.2 -0.1,0.5 -0.3,0.7 -0.2,0.2 -0.5,0.3 -0.9,0.3 -0.4,0 -0.6,0 -0.9,-0.3 -0.2,-0.2 -0.4,-0.5 -0.4,-0.9 H 524 c 0,0.7 0.2,1.2 0.6,1.7 0.4,0.5 0.8,0.8 1.4,1.1 0.6,0.3 1.2,0.4 2,0.4 0.8,0 1.4,-0.1 2,-0.4 0.6,-0.3 1,-0.7 1.3,-1.1 z"
       id="path87" />
    <path
       class="st0"
       d="m 539,377.2 c -0.4,-0.2 -0.9,-0.4 -1.6,-0.6 -0.7,-0.2 -1.1,-0.4 -1.4,-0.6 -0.3,-0.2 -0.5,-0.4 -0.5,-0.8 0,-0.4 0,-0.5 0.3,-0.7 0.2,-0.2 0.4,-0.2 0.7,-0.2 0.3,0 0.6,0 0.9,0.3 0.2,0.2 0.3,0.4 0.4,0.8 h 2.7 c 0,-1 -0.4,-1.7 -1.1,-2.2 -0.7,-0.5 -1.6,-0.8 -2.7,-0.8 -1.1,0 -2,0.3 -2.7,0.8 -0.7,0.5 -1,1.3 -1,2.2 0,0.9 0.1,1.1 0.4,1.5 0.3,0.4 0.7,0.7 1.1,0.9 0.4,0.2 0.9,0.4 1.6,0.6 0.5,0.1 0.8,0.3 1,0.4 0.2,0.1 0.5,0.2 0.6,0.4 0.2,0.2 0.3,0.4 0.3,0.6 0,0.2 -0.1,0.5 -0.3,0.7 -0.2,0.2 -0.5,0.3 -0.9,0.3 -0.4,0 -0.6,0 -0.9,-0.3 -0.2,-0.2 -0.4,-0.5 -0.4,-0.9 h -2.6 c 0,0.7 0.2,1.2 0.6,1.7 0.4,0.5 0.8,0.8 1.4,1.1 0.6,0.3 1.2,0.4 2,0.4 0.8,0 1.4,-0.1 2,-0.4 0.6,-0.3 1,-0.7 1.3,-1.1 0.3,-0.5 0.4,-1 0.4,-1.6 0,-0.6 -0.1,-1.1 -0.4,-1.5 -0.3,-0.4 -0.7,-0.7 -1.1,-0.9 z"
       id="path88" />
    <path
       class="st0"
       d="m 545,372.5 -3.7,10.1 h 2.6 l 0.6,-1.8 h 3.8 l 0.6,1.8 h 2.6 l -3.7,-10.1 h -2.9 z m 0.2,6.4 1.2,-3.7 1.3,3.7 z"
       id="path89" />
    <path
       class="st0"
       d="m 559.9,377.5 c 0.4,-0.5 0.6,-1.1 0.6,-1.8 0,-0.7 -0.1,-1.1 -0.4,-1.6 -0.3,-0.5 -0.7,-0.9 -1.3,-1.1 -0.6,-0.3 -1.2,-0.4 -2,-0.4 h -4.1 v 10.1 h 2.5 v -3.8 h 0.6 l 2.1,3.8 h 2.8 l -2.3,-4 c 0.7,-0.2 1.3,-0.6 1.7,-1.1 z m -2.2,-0.8 c -0.2,0.2 -0.6,0.3 -1,0.3 h -1.5 v -2.5 h 1.5 c 0.5,0 0.8,0.1 1,0.3 0.2,0.2 0.3,0.5 0.3,0.9 0,0.4 -0.1,0.7 -0.3,0.9 z"
       id="path90" />
    <rect
       class="st0"
       x="562.09998"
       y="372.5"
       width="2.5"
       height="10.1"
       id="rect90" />
  </g>
</svg>
